<svg width="25" height="26" viewBox="0 0 25 26" fill="none" xmlns="http://www.w3.org/2000/svg">
<g id="Group">
<g id="Group_2">
<g id="Group_3">
<path id="Vector" d="M12.4995 25.0283C6.80539 25.0283 2.17285 20.402 2.17285 14.7155C2.17285 9.02906 6.80539 4.40277 12.4995 4.40277C18.1937 4.40277 22.8262 9.02906 22.8262 14.7155C22.8262 20.402 18.1939 25.0283 12.4995 25.0283ZM12.4995 5.3125C7.30788 5.3125 3.08405 9.53064 3.08405 14.7153C3.08405 19.8999 7.30788 24.1183 12.4995 24.1183C17.6912 24.1183 21.915 19.9002 21.915 14.7155C21.915 9.53088 17.6914 5.3125 12.4995 5.3125Z" fill="url(#paint0_linear_96_70990)"/>
</g>
<g id="Group_4">
<path id="Vector_2" d="M2.86304 13.0358C2.7848 13.0271 2.70559 13.0217 2.62516 13.0217C1.45153 13.0217 0.5 13.9717 0.5 15.144C0.5 16.3163 1.45153 17.2663 2.62516 17.2663C2.76755 17.2663 2.90678 17.2518 3.04139 17.2251C2.83072 16.4238 2.71749 15.583 2.71749 14.7155C2.71749 14.1426 2.76901 13.582 2.86304 13.0358Z" fill="url(#paint1_linear_96_70990)"/>
<path id="Vector_3" d="M22.3742 13.0217C22.2938 13.0217 22.2146 13.0271 22.1364 13.0358C22.2304 13.5818 22.2819 14.1426 22.2819 14.7152C22.2819 15.5825 22.1687 16.4233 21.958 17.2248C22.0926 17.2515 22.2316 17.2661 22.3742 17.2661C23.5479 17.2661 24.4994 16.3161 24.4994 15.1438C24.4994 13.9715 23.5479 13.0217 22.3742 13.0217Z" fill="url(#paint2_linear_96_70990)"/>
</g>
</g>
<g id="Group_5">
<path id="Vector_4" d="M13.5986 5.37902C10.8799 5.37902 8.66797 3.1701 8.66797 0.454985C8.66797 0.203591 8.87183 0 9.12357 0C9.3753 0 9.57917 0.203591 9.57917 0.454985C9.57917 2.66852 11.3824 4.46905 13.5986 4.46905C13.8504 4.46905 14.0542 4.67264 14.0542 4.92403C14.0542 5.17543 13.8504 5.37902 13.5986 5.37902Z" fill="url(#paint3_linear_96_70990)"/>
</g>
<g id="Group_6">
<path id="Vector_5" d="M18.1796 18.0259C19.2917 17.8451 20.0465 16.7984 19.8656 15.6878C19.6846 14.5772 18.6364 13.8234 17.5243 14.0041C16.4123 14.1848 15.6574 15.2316 15.8384 16.3422C16.0193 17.4528 17.0675 18.2066 18.1796 18.0259Z" fill="#B7D9E5"/>
<path id="Vector_6" d="M9.03371 16.7997C9.46716 15.761 8.97539 14.5681 7.93531 14.1352C6.89524 13.7024 5.7007 14.1935 5.26725 15.2322C4.8338 16.2708 5.32557 17.4638 6.36565 17.8966C7.40573 18.3295 8.60026 17.8384 9.03371 16.7997Z" fill="#B7D9E5"/>
</g>
<path id="Vector_7" d="M10.3799 16.8895C10.4336 18.0138 11.3606 18.9097 12.4997 18.9097C13.6388 18.9097 14.5658 18.014 14.6195 16.8895H10.3799Z" fill="url(#paint4_linear_96_70990)"/>
<g id="Group_7">
<g id="Group_8">
<path id="Vector_8" d="M10.4656 15.2111C10.2138 15.2111 10.01 15.0075 10.01 14.7561C10.01 14.2626 9.72859 13.8296 9.40785 13.8296C9.08711 13.8296 8.80573 14.2626 8.80573 14.7561C8.80573 15.0075 8.60186 15.2111 8.35013 15.2111C8.0984 15.2111 7.89453 15.0075 7.89453 14.7561C7.89453 13.7435 8.57344 12.9197 9.40785 12.9197C10.2423 12.9197 10.9212 13.7435 10.9212 14.7561C10.9212 15.0075 10.7173 15.2111 10.4656 15.2111Z" fill="url(#paint5_linear_96_70990)"/>
</g>
<g id="Group_9">
<path id="Vector_9" d="M16.6501 15.2111C16.3984 15.2111 16.1945 15.0075 16.1945 14.7561C16.1945 14.2626 15.9132 13.8296 15.5924 13.8296C15.2717 13.8296 14.9903 14.2626 14.9903 14.7561C14.9903 15.0075 14.7864 15.2111 14.5347 15.2111C14.283 15.2111 14.0791 15.0075 14.0791 14.7561C14.0791 13.7435 14.758 12.9197 15.5924 12.9197C16.4268 12.9197 17.1057 13.7435 17.1057 14.7561C17.1057 15.0075 16.9019 15.2111 16.6501 15.2111Z" fill="url(#paint6_linear_96_70990)"/>
</g>
</g>
</g>
<defs>
<linearGradient id="paint0_linear_96_70990" x1="12.4995" y1="4.40277" x2="12.4995" y2="25.0283" gradientUnits="userSpaceOnUse">
<stop stop-color="#95BCCC"/>
<stop offset="1" stop-color="#F0A9AA"/>
</linearGradient>
<linearGradient id="paint1_linear_96_70990" x1="1.7707" y1="13.0217" x2="1.7707" y2="17.2663" gradientUnits="userSpaceOnUse">
<stop stop-color="#95BCCC"/>
<stop offset="1" stop-color="#F0A9AA"/>
</linearGradient>
<linearGradient id="paint2_linear_96_70990" x1="23.2287" y1="13.0217" x2="23.2287" y2="17.2661" gradientUnits="userSpaceOnUse">
<stop stop-color="#95BCCC"/>
<stop offset="1" stop-color="#F0A9AA"/>
</linearGradient>
<linearGradient id="paint3_linear_96_70990" x1="11.3611" y1="0" x2="11.3611" y2="5.37902" gradientUnits="userSpaceOnUse">
<stop stop-color="#95BCCC"/>
<stop offset="1" stop-color="#F0A9AA"/>
</linearGradient>
<linearGradient id="paint4_linear_96_70990" x1="12.4997" y1="16.8895" x2="12.4997" y2="18.9097" gradientUnits="userSpaceOnUse">
<stop stop-color="#95BCCC"/>
<stop offset="1" stop-color="#F0A9AA"/>
</linearGradient>
<linearGradient id="paint5_linear_96_70990" x1="9.40785" y1="12.9197" x2="9.40785" y2="15.2111" gradientUnits="userSpaceOnUse">
<stop stop-color="#95BCCC"/>
<stop offset="1" stop-color="#F0A9AA"/>
</linearGradient>
<linearGradient id="paint6_linear_96_70990" x1="15.5924" y1="12.9197" x2="15.5924" y2="15.2111" gradientUnits="userSpaceOnUse">
<stop stop-color="#95BCCC"/>
<stop offset="1" stop-color="#F0A9AA"/>
</linearGradient>
</defs>
</svg>
