<svg width="25" height="24" viewBox="0 0 25 24" fill="none" xmlns="http://www.w3.org/2000/svg">
<path id="Vector" d="M12.5 -0.00134277C5.8728 -0.00134277 0.5 5.36395 0.5 11.9825C0.5 18.601 5.8728 23.9663 12.5 23.9663C19.1275 23.9663 24.5 18.601 24.5 11.9825C24.5 5.36395 19.1275 -0.00134277 12.5 -0.00134277ZM20.5752 20.0471C18.4184 22.201 15.5504 23.3874 12.4997 23.3874C9.44933 23.3874 6.58133 22.201 4.42453 20.0471C2.26773 17.8929 1.07973 15.0288 1.07973 11.9825C1.07973 8.9362 2.26773 6.07206 4.42453 3.9179C4.4752 3.8673 4.52827 3.8199 4.57973 3.77037C4.5392 3.89393 4.49493 4.01564 4.42347 4.12216C4.25387 4.37489 3.9704 4.47608 3.79253 4.7131C3.63067 4.92907 3.50053 5.2561 3.44027 5.4987C3.37493 5.76128 3.41467 6.08005 3.32213 6.34183C3.2048 6.67445 2.9912 6.87205 3.03093 7.25766C3.49493 7.39508 3.2936 6.57192 3.68453 6.52958C3.80853 6.8369 3.72693 7.40866 3.69173 7.74341C3.6432 8.20412 3.55333 8.3181 3.8288 8.71383C4.04693 9.02727 4.1192 9.23686 4.54133 9.28639C4.92853 9.33193 5.08907 9.50663 5.2504 9.87919C5.5488 9.94257 5.7296 9.9921 5.76827 10.3223C5.8976 10.394 6.14107 10.627 6.27787 10.6629C6.47573 10.7149 6.80667 10.4331 6.99333 10.6502C7.30533 11.0126 6.5984 11.9593 6.472 12.2861C6.28693 12.7644 6.25973 13.4669 6.71333 13.8104C6.9464 13.9867 7.19413 14.0711 7.26987 14.391C7.34 14.6868 7.2856 14.9332 7.4168 15.2125C7.6216 15.6485 8.09013 15.7931 8.42373 16.1268C8.86133 16.5643 8.8312 17.1323 8.8312 17.7518C8.8312 18.4005 9.07787 18.8937 9.16373 19.4876C9.25227 20.1001 9.43253 20.6678 9.5616 21.2601C9.65867 21.7056 10.0435 22.3791 10.6008 22.2886C10.6395 22.0777 10.4203 21.912 10.3928 21.7035C10.3677 21.5134 10.4213 21.3158 10.3832 21.1126C10.308 20.7099 10.312 20.4737 10.5792 20.1235C10.6736 19.9999 10.8035 19.8977 10.9011 19.7738C11.0901 19.5336 10.9453 19.605 10.9371 19.3416C10.9269 19.0133 11.0272 19.1744 11.2253 19.0719C11.3283 19.0186 11.4424 18.858 11.5213 18.7765C11.6947 18.5965 11.9613 18.3813 12.0952 18.168C12.2456 17.9281 12.2269 17.5936 12.3811 17.3456C12.5581 17.0612 12.8091 17.061 13.0565 16.8753C13.3773 16.6351 13.2451 16.3821 13.3035 16.0527C13.4013 15.5017 13.6512 14.8943 13.9989 14.4557C14.4365 13.9034 14.6248 13.4339 14.092 12.9036C13.8288 12.6416 13.6917 12.7114 13.3424 12.6203C13.0763 12.5505 12.8365 12.3564 12.5656 12.3231C12.4035 12.3031 12.3075 12.3617 12.1589 12.3228C12.0208 12.2866 12.0376 12.2025 11.8917 12.2041C11.6744 12.2067 11.3707 12.6589 11.1872 12.37C11.0851 12.2088 11.3952 11.7636 11.3813 11.5476C11.364 11.2826 11.2651 10.8507 11.0051 10.7055C10.9067 10.6507 10.6883 10.643 10.5677 10.5966C10.4259 10.542 10.2869 10.4547 10.16 10.3732C9.9944 10.2672 9.67413 10.0821 9.6008 9.89224C9.39733 9.88425 9.25947 9.77213 9.05253 9.77506C8.86693 9.77746 8.74373 9.86321 8.54293 9.84058C8.3672 9.82087 8.17787 9.68212 7.98827 9.70849C7.86187 9.72606 7.6744 9.88984 7.56507 9.95163C7.27627 10.1143 6.96853 10.2323 6.6488 10.292C6.15387 10.3846 6.06507 10.1956 6.09413 9.73805L6.02 9.59025C6.204 9.07974 5.87253 9.04405 5.50773 8.91995C5.45733 8.55644 5.90507 8.29679 5.71787 7.89813C5.33893 7.87869 4.92613 8.94312 4.6056 8.48241C4.39413 8.17829 4.71547 7.32797 4.9016 7.07018C5.08907 6.81027 5.77093 6.3421 6.09227 6.30162C6.3424 6.27046 6.56107 6.38018 6.65707 6.59908C6.76187 6.83769 6.62507 7.06272 6.6552 7.33303C6.97467 7.25926 6.892 6.85341 6.87787 6.63583C6.85467 6.27259 7.04533 6.29975 7.23093 6.03771C7.4 5.7991 7.42613 5.52693 7.6368 5.29631C7.80107 5.11655 7.99387 4.92721 8.17387 4.76156C8.37947 4.57248 8.6112 4.58979 8.82213 4.45052C9.14267 4.2388 8.71867 3.84547 9.19094 3.87529C9.35893 3.88594 9.27547 3.99034 9.49813 3.94001C9.59253 3.91843 9.76693 3.83135 9.86587 3.79141C10.3165 3.60845 9.99707 3.55945 9.79013 3.32137C9.5272 3.01858 9.89947 3.07158 10.1709 3.02604C10.3701 2.99248 10.328 2.92777 10.5029 3.04468C10.6571 3.14774 10.5664 3.28489 10.7904 3.27717C11.2173 3.26279 10.9216 2.83563 10.8264 2.69369C10.6637 2.45081 10.6221 2.28198 10.2784 2.27266C10.3109 2.16374 10.3155 2.01966 10.2672 1.91447C9.97787 1.95255 9.92773 1.74244 9.7088 1.65962C9.34 1.52007 9.3992 1.8218 9.24827 2.02765C9.09253 2.2399 8.796 2.20315 8.68187 2.462C8.5632 2.73124 8.67627 2.93709 8.24267 2.86359C8.3016 2.70141 8.28133 2.49369 8.2704 2.32059C8.14453 2.30461 8.02933 2.27266 7.91253 2.23484C7.91307 1.80182 8.39333 1.76561 8.71973 1.72433C9.08533 1.67826 9.2048 1.30676 9.5312 1.24418C9.836 1.18585 10.0541 1.67852 10.4299 1.39278C10.6443 1.2298 10.5451 1.13419 10.4667 0.977336C10.4456 0.93526 10.3376 0.840987 10.3088 0.80184C10.3053 0.797312 10.3043 0.793318 10.3016 0.788791C10.5928 0.7326 10.8875 0.689192 11.1843 0.655637C11.24 0.817552 11.3611 1.01329 11.4272 1.1254C11.4755 1.20769 11.5669 1.26282 11.6056 1.35336C11.6496 1.45616 11.5459 1.58372 11.676 1.65322C11.8771 1.76055 12.4619 1.06229 12.6024 0.948842C12.7805 0.805036 12.892 0.726209 12.8496 0.58693C13.7896 0.615158 14.7099 0.756035 15.5952 1.0037C15.6656 1.09185 15.7379 1.18266 15.8104 1.28306C15.9661 1.49903 16.0645 1.6937 16.3456 1.78984C16.5083 1.8455 17.0277 1.83538 16.8117 2.20634C16.6123 2.54855 16.3917 2.10009 16.2912 1.99223C16.152 1.8431 15.74 1.67719 15.7528 2.01993C15.772 2.52964 16.9224 2.44762 16.6755 3.00766C16.8131 3.08889 17.0853 3.22364 17.0405 3.42417C16.9853 3.6721 16.6624 3.51391 16.6688 3.83082C16.6779 4.27928 17.168 4.64865 17.6232 4.487C18.1085 4.31497 17.7429 3.64201 18.2989 3.57303C18.5181 3.54587 18.6475 3.60978 18.8437 3.76504C19.0037 3.89154 19.1067 4.17862 19.3272 4.15625C19.3501 4.01963 19.2469 3.9219 19.2293 3.7962C19.4 3.83854 19.7432 4.05159 19.8411 4.19992C19.9893 4.42442 19.9736 4.74798 20.3357 4.45824C20.2816 4.41377 20.2544 4.31443 20.2248 4.27902C20.688 4.28061 21.0112 4.47102 21.2104 4.87235C21.6547 5.76874 20.5635 5.05743 20.5093 5.52453C20.2405 5.43932 20.1211 5.22334 19.888 5.09418C19.7773 5.03293 19.5728 5.06595 19.488 5.00364C19.3712 4.91842 19.4 4.7629 19.2973 4.67874C18.8939 4.34825 17.9736 4.88193 17.6027 5.09525C17.5021 5.15304 17.3949 5.15943 17.3264 5.26808C17.2085 5.45423 17.3741 5.50216 17.3371 5.6758C17.2845 5.92399 16.9603 6.03824 16.8621 6.23717C16.6267 6.71493 17.1048 7.39854 17.0405 7.92876C17.0048 8.22303 16.6869 8.54206 16.8091 8.78839C16.8616 8.89439 17.0448 8.98466 17.1149 9.10983C17.1787 9.22328 17.2059 9.37241 17.2896 9.49012C17.5616 9.87173 17.9528 10.2962 18.2712 10.6528C18.4523 10.8552 18.6987 10.9119 18.9717 10.8557C19.1971 10.8094 19.5395 10.734 19.7483 10.6339C20.0275 10.5005 20.0645 10.3122 20.3576 10.4395C20.5912 10.541 20.7965 10.8379 21.0691 10.5918C21.2939 10.8113 21.0445 11.1932 20.9944 11.4374C20.9301 11.7505 21.0541 12.0224 21.2469 12.2887C21.4781 12.608 21.5325 12.6642 21.4851 13.0911C21.4483 13.4237 21.3635 13.7279 21.292 14.0576C21.2235 14.3726 21.0224 14.612 21.0331 14.946C21.0432 15.2541 21.1765 15.5017 21.136 15.8322C21.1 16.1233 21.0824 16.4703 21.0064 16.7555C20.9283 17.0474 20.7219 17.3062 20.6349 17.605C20.5523 17.8894 20.5757 18.2575 20.7747 18.4913C20.9819 18.7347 21.1877 18.5954 21.4312 18.4114C21.9107 18.0476 22.1293 17.4306 22.4477 16.9403C22.7731 16.4394 23.1011 15.9824 23.3179 15.4631C23.3637 15.3529 23.4195 15.2445 23.476 15.1358C22.9512 16.9728 21.9661 18.658 20.5752 20.0471Z" fill="url(#paint0_linear_96_71162)"/>
<defs>
<linearGradient id="paint0_linear_96_71162" x1="12.5" y1="-0.00134277" x2="12.5" y2="23.9663" gradientUnits="userSpaceOnUse">
<stop stop-color="#95BCCC"/>
<stop offset="1" stop-color="#F0A9AA"/>
</linearGradient>
</defs>
</svg>
