<svg width="146" height="122" viewBox="0 0 146 122" fill="none" xmlns="http://www.w3.org/2000/svg">
<path d="M71.9784 122C107.728 122 136.71 119.474 136.71 116.358C136.71 113.242 107.728 110.716 71.9784 110.716C36.2283 110.716 7.24713 113.242 7.24713 116.358C7.24713 119.474 36.2283 122 71.9784 122Z" fill="#FCDCDC"/>
<path d="M42.6468 44.1449C43.1814 44.5225 43.2853 45.3238 44.2848 45.5282C43.2869 45.7714 43.1489 46.5439 42.658 46.9921C42.6397 46.898 42.6217 46.8035 42.6034 46.7094C42.5664 46.6371 42.5294 46.5649 42.4927 46.4927L42.5133 46.4853C42.375 46.0332 42.0935 45.7401 41.6113 45.6695C41.5929 45.585 41.5743 45.5002 41.5556 45.4157C42.2608 45.2825 42.5931 44.8285 42.6484 44.1372L42.6468 44.1449Z" fill="url(#paint0_linear_85_71254)"/>
<path d="M73.2452 7.76598C72.4966 8.01169 72.2586 8.57468 71.99 9.17765C71.8758 8.52083 71.5882 8.05489 70.9313 7.78436C71.509 7.47127 71.8989 7.06112 71.99 6.27209C72.2277 7.01727 72.5561 7.50448 73.2452 7.76598Z" fill="url(#paint1_linear_85_71254)"/>
<path d="M54.1614 24.0947C54.2264 23.9567 54.3914 23.8145 54.144 23.6907C54.5066 23.4246 54.688 23.0467 54.819 22.4193C55.0535 23.1441 55.3433 23.6365 56.0793 23.8754C55.3771 24.1685 55.0451 24.6051 54.864 25.4525C54.69 24.785 54.5092 24.3842 54.1614 24.0947Z" fill="url(#paint2_linear_85_71254)"/>
<path d="M53.3032 80.6289C53.4869 81.4692 54.0701 81.9226 54.9892 82.2605C53.8208 82.6116 53.364 83.458 53.0564 84.5369C52.9654 84.052 52.9094 83.6831 52.6971 83.3655C52.4922 82.8983 52.0566 82.7509 51.6317 82.5852C51.4541 82.5162 51.3534 82.3511 51.355 82.1854C51.3579 81.8481 51.595 82.1083 51.7172 82.0667C52.6147 81.7623 52.8792 80.9946 53.058 80.0692C53.1681 80.3207 53.2356 80.4748 53.3032 80.6289Z" fill="url(#paint3_linear_85_71254)"/>
<path d="M62.9607 36.1663C61.9023 36.4098 61.5864 37.2672 61.3239 38.1935C61.11 37.7028 61.1193 37.1414 60.6783 36.7903C60.5908 36.6942 60.5036 36.5978 60.4168 36.5014C60.2733 36.3137 60.0854 36.2089 59.849 36.1934C59.691 36.1425 59.5331 36.0919 59.3748 36.0409L59.4009 35.9961L59.3584 35.9651C59.5212 35.9161 59.6843 35.8677 59.8474 35.8194C60.1494 35.791 60.3733 35.6295 60.5567 35.3992C60.6178 35.3164 60.6789 35.2335 60.7401 35.151L60.7314 35.1706C60.7989 35.0523 60.8668 34.9339 60.9344 34.8156L60.9164 34.8314C61.0943 34.6747 61.1341 34.4661 61.1361 34.2433C61.1846 34.1423 61.2332 34.0417 61.3014 33.9005C61.5472 34.3403 61.5205 34.9288 62.031 35.1906L62.0432 35.2032C62.0818 35.7794 62.933 35.5792 62.9607 36.1663Z" fill="url(#paint4_linear_85_71254)"/>
<path d="M86.873 23.0222C86.7836 23.1628 86.6784 23.2963 86.6089 23.4466C86.5397 23.5965 86.5063 23.7629 86.4175 24.0518C86.1006 23.3673 86.016 22.6482 85.3456 22.3341C85.262 22.2077 85.1378 22.1768 84.9966 22.1861L85.0107 22.1952C85.1774 22.0278 84.3094 22.0791 84.9348 21.7879C85.5528 21.5003 86.0212 21.0556 86.0588 20.3053C86.2116 20.2579 86.2534 20.1473 86.2316 20.0006C86.3435 19.9974 86.4828 19.9767 86.5105 20.1199C86.6993 21.0947 87.4118 21.5864 88.2138 21.9994C87.6418 22.1761 87.261 22.6037 86.873 23.0222Z" fill="url(#paint5_linear_85_71254)"/>
<path d="M48.4134 70.8953C48.2683 70.8508 48.1725 70.766 48.1725 70.6019C49.2386 70.4777 49.5673 69.66 49.8765 68.6037C50.2056 69.6797 50.6662 70.4529 51.8623 70.6999C50.7637 71.0707 50.1795 71.6566 50.0312 72.6194C49.8179 72.7832 49.8179 72.7832 49.6758 72.3753C49.5535 71.6263 49.1392 71.1275 48.4134 70.8953Z" fill="url(#paint6_linear_85_71254)"/>
<path d="M86.2078 50.8659C85.3482 51.1358 85.1591 51.9077 84.8696 52.7135C84.3616 51.9 84.2818 50.7447 82.9594 50.7002C84.1145 50.3549 84.6434 49.5984 84.8258 48.3218C85.1652 49.4859 85.5589 50.3465 86.6771 50.5277C86.5208 50.6399 86.3641 50.7531 86.2078 50.8659Z" fill="url(#paint7_linear_85_71254)"/>
<path d="M60.9489 61.4341C60.8488 61.6682 60.7485 61.9023 60.6172 62.2099C60.4052 61.1836 59.9996 60.3765 58.799 60.058C59.3736 59.8168 59.8432 59.6604 60.0851 59.209C60.4293 58.8778 60.4618 58.4054 60.6481 57.9024C60.9135 58.9081 61.379 59.6675 62.4592 60.0325C61.7261 60.3694 61.1663 60.7335 60.9489 61.4341Z" fill="url(#paint8_linear_85_71254)"/>
<path d="M71.0821 55.4741C70.2889 55.8142 69.926 56.3024 69.6834 57.1717C69.4563 56.3266 69.1736 55.7775 68.2767 55.505C69.1575 55.1951 69.5113 54.687 69.6744 53.9779C69.8941 54.6712 70.2577 55.1871 71.0821 55.4741Z" fill="url(#paint9_linear_85_71254)"/>
<path d="M83.8227 35.8884C83.7729 36.0632 83.6345 36.1477 83.4859 36.2209C82.9332 36.4427 82.8004 37.0005 82.526 37.4587C82.4365 37.3294 82.359 37.2169 82.2815 37.1044C82.2458 36.485 81.7546 36.2808 81.1996 35.9903C81.9839 35.7043 82.4111 35.1997 82.4517 34.4197C82.4803 34.3926 82.5028 34.3613 82.5202 34.3259C82.7023 35.0585 82.9854 35.7056 83.8227 35.8884Z" fill="url(#paint10_linear_85_71254)"/>
<path d="M99.9933 66.6458C100.383 66.3408 100.278 65.7984 100.584 65.3821C100.796 66.4201 101.294 67.1649 102.411 67.4855C101.517 67.8466 100.89 68.3541 100.721 69.2666C100.586 69.632 100.457 69.6297 100.384 69.2473C100.211 68.3448 99.6481 67.8121 98.7625 67.5245C99.2341 67.2726 99.7546 67.1495 99.9933 66.6458Z" fill="url(#paint11_linear_85_71254)"/>
<path d="M93.71 76.7003C92.8276 77.0208 92.4966 77.5354 92.2247 78.3461C91.9899 77.5645 91.7039 76.9966 90.8264 76.7393C91.6653 76.4452 92.0533 75.9409 92.1987 74.9639C92.4622 75.8716 92.7697 76.4333 93.71 76.7003Z" fill="url(#paint12_linear_85_71254)"/>
<path d="M54.4748 49.7297C53.6634 50.0216 53.3225 50.5994 53.0638 51.43C52.8949 50.5529 52.5459 49.9816 51.6426 49.7307C52.5475 49.4802 52.912 48.9394 53.0551 48.0772C53.3257 48.8608 53.6647 49.4444 54.4748 49.7297Z" fill="url(#paint13_linear_85_71254)"/>
<path d="M85.1552 62.1831C85.8041 61.8758 86.2441 61.5363 86.3574 60.8495C86.6031 61.4183 86.8952 61.8816 87.5817 62.1167C86.9416 62.4379 86.5816 62.8441 86.3902 63.6773C86.1682 62.8622 85.9221 62.3366 85.1552 62.1831Z" fill="url(#paint14_linear_85_71254)"/>
<path d="M66.3201 82.3444L66.3214 82.347C65.6944 82.5017 65.4023 82.9744 65.1675 83.8425C64.9918 83.016 64.7477 82.5275 63.9952 82.3076C64.6216 81.999 64.9983 81.6198 65.1717 81.0211C65.3682 81.6618 65.8742 81.9758 66.3201 82.3444Z" fill="url(#paint15_linear_85_71254)"/>
<path d="M72.4976 42.0684C72.7611 42.742 73.0226 43.2099 73.8687 43.4159C73.0593 43.6516 72.7518 44.1034 72.5253 44.7853C72.2551 44.1866 72.0656 43.6349 71.1555 43.4736C71.9765 43.2221 72.2853 42.7801 72.4976 42.0684Z" fill="url(#paint16_linear_85_71254)"/>
<path d="M73.5482 97.776C73.3931 97.2297 72.7157 97.181 72.5107 96.6822C73.3188 96.5274 73.6035 95.9441 73.7267 95.1409C74.0352 95.8258 74.2868 96.5033 75.2419 96.759C74.3836 97.0621 74.0478 97.6038 73.8033 98.3354C73.682 98.07 73.6151 97.923 73.5482 97.776Z" fill="url(#paint17_linear_85_71254)"/>
<path d="M75.0283 73.5458C74.9797 73.6744 74.9312 73.8031 74.8144 74.1133C74.5625 72.9586 74.1585 72.1054 72.8186 71.8575C74.1015 71.5902 74.5821 70.8437 74.8244 69.8167C75.1017 70.7844 75.6247 71.5037 76.565 71.8497C76.5502 71.8739 76.5383 71.9007 76.5197 71.9216C76.501 71.9426 76.4756 71.9581 76.4534 71.9755C75.6662 72.2134 75.23 72.7729 75.0283 73.5458Z" fill="url(#paint18_linear_85_71254)"/>
<path d="M102.729 56.876C102.739 56.0915 102.005 55.8607 101.616 55.3728C102.412 55.2677 102.622 54.6421 102.84 53.9176C103.108 54.5951 103.38 55.1916 104.245 55.4573C103.359 55.7352 103.377 56.5845 102.835 56.9889C102.829 56.9934 102.793 56.965 102.776 56.9467C102.757 56.926 102.744 56.8999 102.729 56.876Z" fill="url(#paint19_linear_85_71254)"/>
<path d="M90.4355 91.3422C90.2808 90.3768 89.9227 89.8396 89.0625 89.5636C89.9227 89.3095 90.2923 88.7765 90.4342 87.8752C90.6822 88.7142 91.0335 89.2834 91.8677 89.5597C91.0303 89.875 90.6825 90.4416 90.4355 91.3422Z" fill="url(#paint20_linear_85_71254)"/>
<path d="M48.3105 39.8062C48.8416 39.622 48.6879 38.9359 49.1289 38.6857C49.375 38.3029 49.7395 38.1036 50.1715 38.0088C50.1516 37.7067 49.8308 37.7367 49.6887 37.5693C48.8796 37.2376 48.7178 36.4479 48.4199 35.5679C48.2369 36.8184 47.7402 37.6197 46.4219 37.9066C47.6372 38.1836 48.1693 38.8201 48.3105 39.8062Z" fill="#B7D9E5"/>
<path d="M38.292 58.5654C38.2081 58.7583 38.1531 58.884 38.0984 59.0098C37.9433 59.5647 37.4962 59.8226 36.9728 60.0587C37.9012 60.1812 37.9758 61.046 38.4281 61.5564C38.5179 61.0789 38.6617 60.6352 39.1445 60.4027C39.1999 60.3576 39.2552 60.3124 39.3105 60.2673C39.4321 60.2176 39.554 60.1677 39.676 60.118C39.6518 60.0393 39.6277 59.9603 39.6033 59.882C38.7932 59.8584 38.7051 59.0588 38.292 58.5654Z" fill="#B7D9E5"/>
<path d="M66.2976 14.6748C66.6 13.9357 66.9288 13.3524 67.8047 13.038C66.8811 12.7968 66.5591 12.2126 66.3121 11.4197C66.1078 12.2371 65.8257 12.841 64.9796 13.0648C65.8208 13.2641 66.0576 13.9093 66.2976 14.6748Z" fill="#B7D9E5"/>
<path d="M53.1442 25.4906C53.3395 24.7657 53.6001 24.3033 54.1614 24.0947C54.2264 23.9567 54.3914 23.8145 54.144 23.6907C53.4762 23.4849 53.3501 22.8494 53.0561 22.2526C52.8978 23.0245 52.597 23.6255 51.814 23.9054C52.5922 24.1453 52.7965 24.7915 53.1442 25.4906Z" fill="#B7D9E5"/>
<path d="M100.384 69.247C100.211 68.3445 99.6484 67.8118 98.7628 67.5242C99.2341 67.2727 99.7546 67.1492 99.9933 66.6459C99.0726 64.8202 98.0027 63.1109 96.399 61.7873C93.8586 59.6901 90.9354 58.6302 87.6664 58.4722C87.4669 58.4625 87.2681 58.4416 87.0693 58.4261C85.5352 58.5219 84.0049 58.5899 82.4968 58.9746C80.896 59.3831 79.3033 59.8107 77.7714 60.4256C74.7971 61.6193 71.888 63.018 68.6923 63.5349C65.818 63.9996 63.0643 63.8567 60.9489 61.4345C60.8488 61.6686 60.7484 61.9027 60.6172 62.2103C60.4052 61.184 59.9995 60.3769 58.7993 60.0583C59.3739 59.8171 59.8435 59.6607 60.0854 59.2093C59.5447 55.6386 61.9863 51.7699 65.3795 50.8203C68.6708 49.8994 71.805 52.7556 71.1967 56.1219C70.9426 57.5291 69.9128 58.1024 68.59 57.5639C68.1101 57.3685 67.6655 57.1073 67.2627 56.7748C66.9011 56.4763 66.5289 56.1912 66.0454 55.8082C66.1111 56.5466 66.36 57.0328 66.5736 57.5271C67.6558 60.0315 69.2595 61.0637 71.9739 60.8999C74.4451 60.7509 76.5001 59.6353 78.3074 57.9911C80.6959 55.8182 81.817 53.0709 81.6424 49.9013C81.5214 47.7022 80.6708 45.6576 79.4587 43.7951C77.2696 40.4317 74.3062 38.044 70.5327 36.6762C68.0428 35.9955 65.5162 35.8646 62.9607 36.1671C61.9024 36.4105 61.5865 37.2679 61.324 38.1943C61.11 37.7035 61.1194 37.1421 60.679 36.7907C60.5181 36.8229 60.3573 36.8552 60.1964 36.8874C59.5193 37.1741 58.8421 37.4607 58.1653 37.7477C57.9816 37.8505 57.7979 37.9537 57.6142 38.0566C57.1735 38.3116 56.7328 38.5664 56.292 38.8214L56.2669 38.8066C56.2007 38.951 56.1038 39.0439 55.9301 39.0084L55.9324 39.0246C55.8709 39.2928 55.6422 39.377 55.4325 39.4821C55.1169 39.7588 54.8016 40.0354 54.4861 40.3121C53.8083 41.0708 53.1301 41.8295 52.4523 42.5886C52.4041 42.644 52.3561 42.6998 52.3079 42.7553C51.6738 43.9167 51.0398 45.0782 50.406 46.2396C50.4099 46.2886 50.3948 46.3312 50.3613 46.3673C50.1992 46.9032 50.0377 47.4397 49.7453 47.9241C49.7166 48.0385 49.6877 48.1527 49.6591 48.2671C49.6047 48.6286 49.5275 48.983 49.3342 49.3006C49.3126 49.4179 49.2911 49.535 49.2692 49.6524C49.2267 49.8239 49.1839 49.9954 49.1415 50.1673C49.1048 50.2856 49.0681 50.4037 49.0314 50.522C48.8442 51.8214 48.5856 53.1151 48.4849 54.421C48.2973 56.8506 48.5708 59.2399 49.3808 61.5528C49.4258 61.6715 49.4709 61.7902 49.5162 61.9088L49.5613 61.9662L49.514 62.0126C49.4641 62.0472 49.4143 62.0817 49.3644 62.1162C49.4217 62.5366 49.9949 62.515 50.0583 62.93C50.6293 63.7387 51.2006 64.5471 51.7716 65.3558C52.1229 65.6418 52.4826 65.9178 52.8236 66.2151C56.1235 69.091 59.8947 70.5623 64.3167 70.1041C64.8146 69.9168 65.3808 70.0889 65.8611 69.8087C65.9824 69.7823 66.1037 69.7562 66.2249 69.7297C66.3401 69.7146 66.4556 69.6991 66.5708 69.6839C67.1405 69.4972 67.7105 69.3106 68.2802 69.1239C68.3989 69.0765 68.5176 69.0291 68.6363 68.9817C68.6836 68.9497 68.7354 68.931 68.792 68.9259C71.2556 67.9144 73.712 66.8835 76.4499 66.9096C80.4418 66.9477 83.7433 70.0019 84.0924 73.9957C84.3471 76.9103 82.1474 79.4066 79.229 79.5598C77.3391 79.6591 75.5971 79.1432 73.9253 78.3487C72.3738 77.6116 70.8531 76.8093 69.319 76.0358C69.2579 75.9907 69.1971 75.9458 69.1359 75.9007L69.1411 75.9139C68.9078 75.8881 68.7258 75.7869 68.6273 75.5634C68.1885 75.5728 67.7951 75.4331 67.4319 75.1952C67.2585 75.1378 67.0851 75.0804 66.9121 75.023C66.8252 74.9727 66.7384 74.9224 66.6515 74.8721C66.5074 74.8576 66.3633 74.8427 66.2191 74.8282L66.139 74.8398L66.0599 74.8247C65.6793 74.856 65.3638 74.6457 65.0199 74.5419C64.7053 74.5226 64.389 74.5177 64.0764 74.4813C61.4835 74.1779 59.1403 74.8408 56.9763 76.267C55.3163 77.3607 54.2332 78.9272 53.3038 80.6306C53.4875 81.4709 54.0708 81.9243 54.9898 82.2622C53.8214 82.6134 53.3646 83.4598 53.0571 84.5387C52.9661 84.0537 52.9101 83.6848 52.6978 83.3672C52.4118 85.5041 52.7364 87.5423 53.7182 89.4631C54.9274 91.8279 56.781 93.2312 59.5038 93.3808C61.0669 93.4665 62.5798 93.1873 64.0976 92.9C65.7816 92.5811 67.4522 92.1651 69.1839 92.1887C71.3534 91.9175 73.4556 92.1242 75.4887 92.9887C78.9208 94.4481 80.2005 97.7135 78.6748 101.132C78.0861 102.451 77.1696 103.563 76.4531 104.8C76.5037 104.85 76.5541 104.899 76.6047 104.948C82.04 102.095 83.1128 96.1061 80.666 91.5051C79.608 89.5156 77.7354 88.7243 75.7136 88.1681C73.5927 87.5845 71.3768 87.3988 69.2997 86.6275C68.5167 86.3366 67.7629 86.0045 67.153 85.4138C66.27 84.5587 65.7385 83.6042 66.3227 82.3483C65.6954 82.5037 65.4033 82.9764 65.1688 83.8445C64.9932 83.018 64.749 82.5295 63.9966 82.3096C64.6229 82.001 64.9996 81.6218 65.173 81.0231C65.3696 81.6638 65.8756 81.9775 66.3214 82.3464C67.6436 80.7693 69.3254 80.5342 71.2723 80.8019C73.7049 81.1366 75.657 82.3602 77.6228 83.6858C78.98 84.6009 80.2597 85.6405 81.7627 86.3482C82.9176 86.8922 84.1226 87.1992 85.3553 87.45C88.4439 87.5297 91.3964 86.9186 94.2283 85.6933C97.2779 84.3739 99.3325 82.1384 100.317 78.9568C101.303 75.7688 101.538 72.5376 100.722 69.2683C100.587 69.6317 100.457 69.6295 100.384 69.247ZM72.4976 42.0684C72.7611 42.742 73.0226 43.2099 73.8687 43.4159C73.0593 43.6517 72.7518 44.1034 72.5253 44.7854C72.2551 44.1866 72.0653 43.6349 71.1555 43.4737C71.9765 43.2222 72.2853 42.7801 72.4976 42.0684ZM53.0639 51.43C52.895 50.5529 52.5459 49.9816 51.6426 49.7307C52.5475 49.4802 52.912 48.9394 53.0552 48.0772C53.3254 48.8604 53.6645 49.4441 54.4745 49.7294C53.6635 50.0219 53.3225 50.5997 53.0639 51.43ZM86.3902 63.6774C86.1682 62.8626 85.9222 62.3367 85.1552 62.1832C85.8041 61.8759 86.2442 61.5364 86.3574 60.8496C86.6035 61.4184 86.8953 61.8817 87.5818 62.1168C86.9416 62.4376 86.5819 62.8439 86.3902 63.6774ZM92.2244 78.3458C91.9896 77.5642 91.7036 76.9964 90.8264 76.739C91.6653 76.445 92.0533 75.9407 92.199 74.9637C92.4625 75.8717 92.77 76.4334 93.71 76.7C92.8273 77.0209 92.4966 77.5355 92.2244 78.3458Z" fill="#B7D9E5"/>
<path d="M68.6254 75.5596L68.6274 75.5628H68.6302L68.6254 75.5596Z" fill="#B7D9E5"/>
<path d="M83.6308 45.1485C83.6266 45.1404 83.6227 45.1324 83.6185 45.1243C83.6194 45.1353 83.6204 45.1463 83.6211 45.1573L83.6308 45.1485Z" fill="#B7D9E5"/>
<path d="M76.1295 33.0248C77.3632 34.9985 79.8077 36.5524 82.452 34.4201C82.4803 34.393 82.5032 34.362 82.5205 34.3266C83.2402 33.4763 83.7957 32.5528 83.8134 31.3923C83.8356 29.9361 83.0446 29.2619 81.6217 29.5602C81.0646 29.6769 80.5241 29.8739 79.8978 30.0574C79.9837 29.2235 80.3877 28.6509 81.1015 28.3342C82.6489 27.6481 84.7508 28.4003 85.5602 29.8965C86.5417 31.7118 86.3609 33.1845 84.959 34.7106C84.59 35.1124 84.202 35.4964 83.8228 35.8885C83.7729 36.0632 83.6346 36.1477 83.4853 36.2212C83.188 36.7839 82.8905 37.3469 82.5932 37.9096C82.5424 38.1027 82.4913 38.2955 82.4404 38.4887L82.4549 38.5335L82.4131 38.5641C81.8939 40.9218 82.5431 43.0626 83.6185 45.124C83.5728 44.5632 83.5274 44.0028 83.4814 43.4421C83.3035 41.283 83.3154 39.1642 84.9088 37.4343C85.7722 36.4969 86.856 35.8362 87.905 35.1359C90.0999 33.6704 91.4156 31.7225 91.0187 28.9782C90.6352 26.3273 89.3925 24.2114 86.8727 23.0219C86.7833 23.1625 86.6781 23.296 86.6086 23.4463C86.5394 23.5962 86.506 23.7626 86.4172 24.0515C86.1003 23.367 86.0157 22.6479 85.3453 22.3338C85.2289 22.2845 85.1127 22.2352 84.9963 22.1858L85.0104 22.1949C83.8494 22.0485 82.6901 21.8699 81.5136 21.9956C79.9821 22.1594 78.5631 22.6179 77.3931 23.6639C75.5672 25.2965 74.9968 27.4256 75.0373 29.7856C75.2699 30.9099 75.5073 32.0291 76.1295 33.0248Z" fill="#B7D9E5"/>
<path d="M49.6754 72.3754C49.1141 72.0027 48.6525 71.5442 48.4134 70.8954C48.2684 70.8509 48.1725 70.7661 48.1725 70.602C47.9888 70.0828 47.7559 69.5766 47.7475 69.0104C47.6945 68.9101 47.6607 68.7457 47.5841 68.7221C47.4052 68.667 47.4725 68.8537 47.459 68.9324C47.3599 69.4979 47.2917 70.0722 46.9079 70.5394C46.831 70.78 46.8101 71.0631 46.6663 71.2527C46.37 71.6432 46.2308 72.2677 45.5314 72.1645C45.5086 72.2571 45.4857 72.3493 45.4635 72.4419C44.9916 72.9233 44.2662 72.8897 43.6373 73.2712C45.8756 73.5785 47.2637 75.2374 47.5027 77.7519C48.1053 75.5776 49.0507 73.7084 51.604 73.2138C50.9895 72.9819 50.5102 72.8011 50.0309 72.6202C49.8173 72.7833 49.8173 72.7833 49.6754 72.3754Z" fill="#B7D9E5"/>
<path d="M65.3042 28.3401C66.9912 28.8157 67.8678 29.8059 68.102 31.351C68.056 31.4275 68.01 31.5039 67.9643 31.5803C68.3146 31.9008 68.3896 31.7467 68.468 31.3514C68.671 30.3321 69.1925 29.4944 70.0656 28.9059C70.4165 28.6693 70.9267 28.7186 71.1963 28.2736C69.5074 27.8383 68.6968 26.6546 68.4024 25.0224C68.387 24.9373 68.4928 24.6242 68.1759 24.7864C68.1599 24.9009 68.1438 25.0153 68.1277 25.1298C67.9849 26.7962 67.1156 27.869 65.3042 28.3401Z" fill="#B7D9E5"/>
<path d="M104.112 42.7413C104.087 42.6314 104.063 42.5214 104.038 42.4112C103.985 42.2403 103.932 42.0694 103.879 41.8985C103.771 41.5528 103.663 41.2068 103.556 40.8612C103.508 40.7402 103.461 40.6193 103.413 40.4984C103.358 40.3846 103.302 40.2704 103.246 40.1566C102.898 39.602 102.551 39.0474 102.204 38.4928C101.5 37.817 100.812 37.1311 99.9196 36.6832C96.6573 35.0452 91.8026 36.1841 89.334 39.1154C87.7406 41.0069 87.361 43.1299 87.823 45.4912C88.1222 47.0195 88.3837 48.5795 88.0022 50.1121C87.3675 52.6601 85.6593 54.4587 83.6577 56.0538C86.7196 55.2548 89.7451 54.3684 92.2186 52.2199L92.2192 52.2254C92.3177 52.1071 92.4161 51.9887 92.5145 51.8701C92.6455 51.7034 92.7767 51.537 92.908 51.3703C93.3886 50.5116 93.6739 49.591 93.781 48.6137C93.7807 48.4976 93.7804 48.3815 93.7801 48.2655C93.7759 48.0359 93.772 47.8063 93.7679 47.577C93.5929 46.6391 93.6443 45.7156 93.9467 44.8085C94.0429 44.5773 94.1391 44.3465 94.2353 44.1153C94.5164 43.4504 94.9195 42.9093 95.6568 42.7068L95.6594 42.7201C95.7884 42.5327 95.9718 42.4892 96.1838 42.5211L96.1703 42.5472C96.2352 42.5053 96.2999 42.4637 96.3649 42.4218C96.6525 42.346 96.9417 42.3305 97.2328 42.3992C97.4236 42.3902 97.6147 42.3799 97.7633 42.5356C97.8842 42.5979 98.0052 42.6604 98.1258 42.7226C99.0307 43.3543 99.1874 44.1085 98.6338 45.1648C98.6058 45.3963 98.4919 45.5705 98.2886 45.6853C97.6783 46.6655 96.8973 46.5523 96.0535 46.0361C96.0551 46.1441 96.0567 46.2524 96.0583 46.3605C96.168 46.5236 96.1661 46.7032 96.1355 46.8873C96.2163 47.2262 96.297 47.5651 96.3777 47.904C96.5875 48.1978 96.7972 48.4915 97.007 48.7852C97.0488 48.8004 97.0752 48.8294 97.0868 48.8723C97.3753 49.0522 97.6639 49.2318 97.9524 49.4114C98.6614 49.6326 99.3833 49.7706 100.13 49.75C100.255 49.7294 100.38 49.7091 100.504 49.6884C100.958 49.542 101.412 49.3956 101.866 49.2493C101.93 49.2106 101.993 49.1719 102.056 49.1332C102.57 48.7204 103.08 48.3022 103.465 47.7563C103.541 47.6251 103.616 47.4939 103.691 47.3626C104.205 46.1589 104.328 44.8969 104.251 43.6048C104.129 43.3292 104.097 43.039 104.112 42.7413Z" fill="#B7D9E5"/>
<path d="M95.6749 32.18C96.272 30.7574 96.4286 30.5772 97.5867 29.96C96.493 29.674 95.9889 28.8934 95.6829 27.8964C95.5279 29.0162 94.972 29.7398 93.6891 30.0174C94.9871 30.2725 95.4455 31.0795 95.6749 32.18Z" fill="#B7D9E5"/>
<path d="M83.6307 45.1484L83.621 45.1572C83.6501 45.1969 83.6796 45.2367 83.7087 45.2765C83.6828 45.2338 83.6569 45.1911 83.6307 45.1484Z" fill="#B7D9E5"/>
<path d="M72.5107 96.6823C72.3271 96.2976 72.144 95.9133 71.96 95.527C71.8233 96.5343 71.3478 97.3172 70.1177 97.7073C71.398 98.0221 71.7895 98.844 72.007 100.077C72.2174 98.9091 72.6941 98.1978 73.5479 97.776C73.3932 97.2298 72.7157 97.1811 72.5107 96.6823Z" fill="#B7D9E5"/>
<path d="M77.9194 73.1664C77.2239 72.8807 76.7407 72.5386 76.4534 71.9753C75.6659 72.2136 75.23 72.773 75.028 73.5456C75.7328 73.8658 75.8101 74.6116 76.1511 75.3132C76.3917 74.2746 76.9424 73.5988 77.9194 73.1664Z" fill="#B7D9E5"/>
<path d="M101.616 55.3729C101.024 54.6284 100.677 53.7884 100.63 52.8311L100.645 52.8082C100.557 52.832 100.468 52.8562 100.38 52.8807C100.399 54.1821 100.018 55.2813 98.8246 55.9688C98.5913 56.0794 98.3581 56.1903 98.1249 56.3012C97.9421 56.3728 97.7597 56.4437 97.4831 56.5514C97.9843 56.7243 98.4047 56.7323 98.7033 57.0377C100.009 57.6397 100.209 58.9262 100.567 60.2579C100.88 58.7437 101.376 57.5242 102.729 56.8758C102.74 56.0916 102.005 55.8608 101.616 55.3729Z" fill="#B7D9E5"/>
<path d="M109.597 61.4823C109.499 62.3645 109.05 62.7421 108.385 63.1103C109.17 63.3596 109.414 63.9584 109.711 64.6236C109.984 63.9219 110.239 63.3464 111.088 63.1161C110.309 62.7653 109.973 62.2384 109.597 61.4823Z" fill="#B7D9E5"/>
<path d="M106.591 41.0343C106.769 42.0829 107.199 42.9448 108.285 43.3343C108.25 43.6497 107.884 43.5871 107.74 43.7857C107.385 43.9682 107.111 44.2246 106.989 44.6183C106.752 44.8891 106.752 45.2522 106.594 45.6482C106.296 44.6309 106.015 43.6526 104.781 43.5491C104.775 43.4807 104.769 43.412 104.763 43.3433C104.972 43.3056 105.206 43.3291 105.337 43.1034C105.395 43.0496 105.453 42.9954 105.511 42.9416C105.864 42.9396 106.024 42.7413 106.052 42.4086C106.373 42.1387 106.441 41.7785 106.416 41.3848C106.579 41.3206 106.568 41.1691 106.591 41.0343Z" fill="url(#paint21_linear_85_71254)"/>
<path d="M4.61694 62.5808C5.70587 60.936 7.12775 59.5708 8.39393 58.0753C10.0275 56.1458 11.7041 54.2533 13.3284 52.3161C13.8003 51.7531 14.1754 51.588 14.7972 52.1165C20.9213 57.3233 27.0582 62.5147 33.1996 67.7009C33.5647 68.0092 33.7539 68.32 33.5702 68.7882C33.1289 70.0302 32.1004 70.8376 31.2856 71.786C29.2698 74.1327 27.2724 76.4966 25.212 78.8046C24.9569 79.0903 24.7452 79.4337 24.3103 79.4782C23.885 79.3705 23.6769 78.9658 23.3243 78.7579C17.6062 73.9789 11.9625 69.1116 6.24374 64.3333C5.63671 63.8261 4.9322 63.3753 4.61694 62.5808Z" fill="#95BCCC"/>
<path d="M4.61696 62.5807C7.18922 64.7386 9.77015 66.8867 12.3321 69.0571C16.0718 72.2254 19.7976 75.4099 23.5296 78.5872C23.7718 78.9752 23.5286 79.2695 23.3099 79.5327C22.7028 80.2624 22.1836 81.071 21.5058 81.7337C20.4593 82.7571 19.5721 83.8592 19.2774 85.3399C17.2884 83.9215 15.503 82.2596 13.6556 80.6686C12.226 79.4375 10.7298 78.2838 9.3111 77.0337C7.4218 75.3686 5.47427 73.7699 3.54895 72.1464C2.72027 71.4477 1.86553 70.7796 1.05583 70.0599C-0.274689 68.8775 -0.358008 68.0452 0.864423 66.7687C1.99871 65.5843 2.96797 64.2681 4.05465 63.0493C4.21517 62.869 4.42813 62.7358 4.61696 62.5807Z" fill="#114252"/>
<path d="M24.3097 79.3669C27.1711 76.0564 30.031 72.7449 32.8966 69.4379C33.1002 69.2031 33.3444 69.0039 33.5699 68.7881C34.2792 69.3998 34.9889 70.0115 35.6982 70.6232C35.9379 71.1775 35.4862 71.4667 35.2112 71.7843C32.4511 74.9733 29.688 78.1603 26.9315 81.3525C26.4328 81.7766 26.1224 82.3963 25.5273 82.7213C25.3529 82.771 25.1657 82.78 25.0164 82.6855C24.4744 82.3428 24.079 82.4418 23.6679 82.9516C23.2674 83.4484 23.0309 83.8631 23.5675 84.4009C23.7171 84.5506 23.7316 84.7837 23.6541 85.001C23.5096 85.3312 23.2661 85.5837 23.0094 85.822C22.1791 86.5929 21.4222 86.6007 20.6031 85.8548C19.7745 85.1 19.667 84.3132 20.3512 83.4552C21.3768 82.169 22.4992 80.965 23.5881 79.7326C23.7782 79.5185 23.9989 79.3485 24.3097 79.3669Z" fill="#F7F7E0"/>
<path d="M26.7114 81.1939C29.202 78.2948 31.6957 75.398 34.1808 72.494C34.7029 71.884 35.1938 71.2475 35.6989 70.6229C35.9839 70.5107 36.3104 70.2769 36.5304 70.6567C36.7244 70.9918 36.4362 71.2404 36.2309 71.4764C33.2723 74.8788 30.3134 78.281 27.3542 81.6831C26.9234 81.8056 26.7529 81.585 26.7114 81.1939Z" fill="#95BCCC"/>
<path d="M24.3097 79.367C23.076 80.7996 21.8378 82.2287 20.6099 83.6665C19.9018 84.4958 19.9742 84.8747 20.8566 85.6798C21.557 86.3189 22.183 86.396 22.8132 85.6031C23.0522 85.3025 23.3314 85.0339 23.592 84.7508C24.0041 84.6951 24.2791 84.804 24.2386 85.2919C23.9475 85.6414 23.6788 86.0135 23.3607 86.3363C22.3699 87.342 21.4833 87.3649 20.4227 86.425C20.0292 86.0764 19.6583 85.7024 19.2768 85.34C18.8631 84.035 19.7214 83.2099 20.4635 82.4028C21.5727 81.1969 22.6504 79.9748 23.5289 78.587C23.8905 78.7456 24.1395 79.0168 24.3097 79.367Z" fill="#2E697C"/>
<path d="M24.2389 85.2919C24.0993 85.0204 23.8555 84.874 23.5923 84.7511C23.4453 84.6038 23.3208 84.4168 23.1468 84.3168C22.5533 83.9757 22.5639 83.6152 23.0574 83.1976C23.1365 83.1305 23.2137 83.0499 23.2623 82.9596C23.8346 81.8965 24.5458 81.7482 25.4189 82.6204C25.7808 82.6672 26.1083 82.7565 26.1437 83.2082C27.1026 83.7738 26.8784 84.6525 26.7501 85.5066C26.6831 85.9516 26.6223 86.3975 26.539 86.9796C25.7145 86.3747 24.9766 85.8333 24.2389 85.2919Z" fill="#C83F43"/>
<path d="M26.1433 83.2083C25.9017 83.0122 25.6601 82.8165 25.4188 82.6205C25.8499 82.1449 26.281 81.6696 26.7117 81.194C26.926 81.3571 27.1402 81.52 27.3544 81.6831C26.9504 82.1916 26.5467 82.7001 26.1433 83.2083Z" fill="#2E697C"/>
<path d="M30.1948 29.1219C29.4896 29.2441 29.0769 29.7903 28.9289 30.362C28.6024 31.6234 28.3479 32.9138 28.3463 34.2326C28.8289 33.8931 29.3159 33.5577 29.5942 33.0093C30.2884 33.3749 31.0064 33.452 31.7556 33.1631C31.9875 31.8417 32.2195 30.52 32.4514 29.1986C31.7016 29.1025 30.9613 28.7265 30.1948 29.1219Z" fill="#114252"/>
<path d="M27.0344 49.0507C26.4528 49.1764 26.1536 49.6275 25.8548 50.0789C25.4807 51.3297 25.2584 52.605 25.2381 53.9128C25.5154 53.2902 26.0533 52.9713 26.6371 52.7062C27.324 52.5489 27.9821 52.7939 28.6535 52.8488C28.8481 51.5931 29.0428 50.3372 29.2374 49.081C28.5052 48.9339 27.7737 48.7108 27.0344 49.0507Z" fill="#114252"/>
<path d="M29.4005 34.3148C28.8478 34.5086 28.4418 34.8704 28.1751 35.3911C27.8309 36.49 27.6405 37.6144 27.6196 38.7668C27.9438 38.0948 28.4775 37.6795 29.1885 37.4812C29.8154 37.4448 30.4321 37.5125 31.0392 37.6715C31.2135 36.5694 31.3875 35.4672 31.5619 34.3651C30.8439 34.2503 30.1281 34.0359 29.4005 34.3148Z" fill="#114252"/>
<path d="M32.4517 29.1987C37.9237 30.0622 43.395 30.9286 48.868 31.784C49.4226 31.8708 49.577 32.1458 49.4911 32.6817C48.26 40.3707 47.0389 48.0617 45.8155 55.752C45.5311 55.8552 45.248 55.7888 44.9649 55.7436C39.886 54.933 34.8059 54.1298 29.7273 53.3179C29.3287 53.2541 28.9118 53.2283 28.6004 52.9135C28.4405 52.6801 28.4322 52.4144 28.4717 52.1526C28.6329 51.0879 28.7465 50.0151 29.0086 48.9678C29.2454 46.7977 29.6517 44.6531 29.9898 42.4986C30.2462 40.8654 30.4411 39.2212 30.8069 37.6064C30.9179 36.5056 31.0707 35.4112 31.3287 34.3339C31.347 33.9235 31.3995 33.5185 31.5227 33.1251C31.5944 32.0588 31.8144 31.0144 31.9885 29.9632C32.0403 29.6504 32.1644 29.3725 32.4517 29.1987Z" fill="#114252"/>
<path d="M31.0395 37.6719C28.334 53.4971 30.6679 47.4519 25.7901 49.87C26.4756 45.9165 26.759 42.1155 27.8216 38.1388C28.418 37.1879 30.3141 36.8087 31.0395 37.6719Z" fill="#B7D9E5"/>
<path d="M28.6538 52.8486C34.063 53.7115 39.4723 54.5737 44.8812 55.4376C45.209 55.4898 45.5549 55.495 45.8151 55.7516C45.7903 55.9303 45.7656 56.1086 45.7405 56.2869C45.5201 56.6025 45.2126 56.61 44.8806 56.5313C39.187 55.6304 33.494 54.7233 27.8013 53.8157C27.3448 53.7428 26.8964 53.6506 26.5335 54.0481C26.4087 54.2493 26.2459 54.428 26.1616 54.6566C25.8702 55.4479 26.2996 56.2001 27.1209 56.342C27.4011 56.3904 27.6939 56.3939 27.9502 56.541C28.2346 56.8663 28.5785 56.6632 28.9025 56.6445C29.2673 56.6657 29.6247 56.727 29.9766 56.8218C30.2793 56.8824 30.427 57.4138 30.8522 57.1098C34.7846 57.6715 38.6964 58.3496 42.6185 58.9496C42.991 58.9477 43.3503 59.0622 43.7196 59.0899C43.9638 59.1079 44.2337 59.2053 44.4299 58.9538C44.4846 58.9084 44.547 58.8784 44.6162 58.8629C44.9559 59.0151 45.027 59.3707 45.2049 59.6461C45.193 60.1336 44.9861 60.2949 44.4765 60.2126C38.5606 59.2585 32.6399 58.3344 26.7246 57.3761C25.2046 57.1297 24.5586 55.5633 25.2371 53.9127C25.3092 52.9892 26.0481 52.7619 26.7304 52.4727C27.4153 52.3766 28.0892 52.3343 28.6538 52.8486Z" fill="#95BCCC"/>
<path d="M28.3462 34.2327C28.869 32.9816 30.241 32.7627 31.7555 33.1631C31.7343 33.9502 31.5313 34.233 31.3283 34.3336C30.9693 34.5113 30.6084 34.1195 30.0213 34.1517C29.4625 34.1827 29.0166 34.58 28.7017 34.9643C28.5164 35.131 28.2906 35.3009 28.1831 35.2352C28.0319 35.1423 28.1847 34.6196 28.3462 34.2327Z" fill="#B7D9E5"/>
<path d="M45.0363 56.3572C45.2711 56.3336 45.506 56.3104 45.7408 56.2869C45.5626 57.4064 45.384 58.5259 45.2058 59.6458C44.8513 59.5355 44.5435 59.3888 44.6435 58.9232C44.4733 58.8348 44.456 58.6765 44.4543 58.5108C44.4614 58.3547 44.4685 58.198 44.5094 58.0458C44.529 57.8955 44.5431 57.744 44.5814 57.5966C44.5969 57.4467 44.6184 57.2974 44.6525 57.1501C44.6689 57.0362 44.6744 56.9208 44.7111 56.8105C44.7538 56.6119 44.8256 56.4342 45.0363 56.3572Z" fill="#114252"/>
<path d="M33.8376 43.9715C34.0811 42.4292 34.3185 40.8857 34.5717 39.345C34.7119 38.4909 35.005 38.2713 35.844 38.4022C38.3545 38.7936 40.864 39.1899 43.3716 39.6001C44.411 39.77 44.6136 40.0631 44.4476 41.131C44.0047 43.9795 43.5508 46.8264 43.0949 49.6726C43.0496 49.9557 42.9611 50.2324 42.8916 50.5116C42.7787 50.9643 42.4811 51.1401 42.0343 51.0691C39.2645 50.6303 36.4948 50.1911 33.7259 49.7465C33.0941 49.6449 33.0083 49.206 33.0938 48.6692C33.3438 47.1037 33.5902 45.5376 33.8376 43.9715Z" fill="#B7D9E5"/>
<path d="M40.2405 35.7294C38.8196 35.5034 37.3993 35.2732 35.9771 35.0542C35.5577 34.9897 35.1797 34.844 35.253 34.3542C35.3228 33.8876 35.694 33.7948 36.1348 33.866C38.9756 34.3245 41.8178 34.7753 44.6606 35.2216C45.0926 35.2893 45.4108 35.4357 45.3191 35.9542C45.2239 36.4939 44.8349 36.4611 44.4319 36.3966C43.0351 36.1731 41.6376 35.9519 40.2405 35.7294Z" fill="#B7D9E5"/>
<path d="M28.3672 54.7183C29.166 54.5297 29.9149 54.8547 30.684 54.9572C30.9893 54.9978 30.8964 55.2842 30.8719 55.486C30.8005 56.0784 30.7159 56.6694 30.6364 57.2608C30.2108 57.7825 30.2607 56.997 30.0117 57.0325C29.6205 56.71 29.2046 56.5407 28.7159 56.8222C28.4933 56.7223 28.1539 57.5964 28.022 56.7387C27.9497 56.6004 27.8663 56.4656 27.8885 56.2986C27.8956 56.1451 27.9062 55.9916 27.9455 55.842C27.9635 55.6917 27.9805 55.5412 28.0179 55.3938C28.0352 55.2413 28.0616 55.091 28.1227 54.9488C28.1745 54.8405 28.2479 54.7544 28.3672 54.7183Z" fill="#C83F43"/>
<path d="M28.7162 56.8222C29.4452 56.2644 29.4452 56.2644 30.012 57.0321C29.58 56.9625 29.1483 56.8925 28.7162 56.8222Z" fill="#E4EAE6"/>
<path d="M45.0363 56.357C39.1715 55.4193 33.3068 54.4803 27.4413 53.5465C26.935 53.4659 26.4866 53.5646 26.2269 54.0753C25.3835 55.2561 25.8377 56.3802 27.2512 56.6107C27.5082 56.6527 27.7653 56.6959 28.0223 56.7384C28.0448 56.5853 28.0677 56.4321 28.0905 56.2789C28.1143 56.1371 28.1381 55.9955 28.1623 55.8536C28.1832 55.7101 28.2041 55.5667 28.225 55.4235C28.2488 55.2806 28.2726 55.1378 28.2964 54.995C28.3083 54.9479 28.3205 54.9008 28.3327 54.8537C28.7683 54.9401 29.2119 54.9601 29.6481 55.0362C30.5862 55.1994 30.5801 55.2042 30.4817 56.1342C30.4414 56.5127 30.224 56.9367 30.637 57.2605C30.9217 57.3014 31.2067 57.3391 31.4905 57.3836C35.254 57.9744 39.0174 58.566 42.7809 59.1574C43.2049 59.2312 43.6321 59.2915 44.0522 59.3831C44.438 59.4673 44.5885 59.3099 44.5805 58.9414L44.6435 58.9227C44.6532 58.7753 44.6628 58.6279 44.6725 58.4809C44.6927 58.3342 44.7133 58.1875 44.7336 58.0408C44.758 57.9021 44.7822 57.7635 44.8066 57.6248C44.8278 57.4784 44.8491 57.3317 44.8703 57.1853C44.8822 57.0905 44.8944 56.9957 44.9063 56.9009C44.9498 56.7197 44.9932 56.5385 45.0363 56.357Z" fill="#F7F7E0"/>
<path d="M129.624 113.186C129.538 112.888 129.452 112.591 129.366 112.293C128.971 112.471 128.569 112.368 128.17 112.325C128.307 112.33 128.444 112.335 128.581 112.341C128.854 112.351 129.106 112.379 129.324 112.181C129.037 111.55 128.679 110.941 128.479 110.285C128.146 109.188 127.123 108.57 126.71 107.53C126.458 106.896 126.18 106.24 125.598 105.801C125.348 105.599 125.059 105.512 124.741 105.478C121.153 105.085 117.611 104.398 114.061 103.768C112.101 103.435 110.163 102.991 108.212 102.614C104.28 101.852 100.329 101.292 96.3156 101.283C95.3734 101.299 94.4312 101.289 93.4877 101.292C92.4518 101.269 91.4375 101.46 90.4203 101.602C85.8603 102.242 81.624 103.695 78.0609 106.73C77.1611 107.496 76.1851 108.23 75.6907 109.377C75.6971 109.637 75.8882 109.753 76.0806 109.848C77.6675 110.633 78.7538 111.906 79.5802 113.435C79.7279 113.708 79.864 113.999 80.213 114.071C80.7075 114.157 81.1884 114.071 81.6651 113.949C85.4186 112.971 89.2584 112.644 93.1145 112.561C95.8408 112.502 98.5656 112.749 101.279 113.02C104.753 113.367 108.229 113.685 111.705 113.996C112.305 113.996 112.894 114.142 113.495 114.142C118.603 114.144 123.712 114.145 128.82 114.138C129.15 114.138 129.5 114.176 129.768 113.904C129.72 113.664 129.672 113.425 129.624 113.186Z" fill="#CDB299"/>
<path d="M66.545 101.966C63.5574 100.54 60.3299 100.198 57.0949 100.011C54.0981 99.8383 51.1105 100.103 48.1336 100.505C42.8482 101.217 37.6779 102.507 32.4659 103.587C29.1064 104.283 25.7319 104.89 22.3457 105.436C21.8934 105.509 21.4431 105.542 21.0496 105.804C20.6614 106.12 20.542 106.604 20.302 107.012C19.9263 107.651 19.7008 108.486 19.1552 108.888C18.544 109.339 18.3468 109.878 18.1251 110.493C17.817 111.346 17.4885 112.193 17.1687 113.043C17.3666 113.234 17.6175 113.176 17.8511 113.182C17.9472 113.185 18.0431 113.186 18.1393 113.188C17.9688 113.188 17.7986 113.189 17.6281 113.187C17.4132 113.186 17.1938 113.176 17.0156 113.334C16.9677 113.523 16.9198 113.711 16.8718 113.9C17.2077 114.222 17.6342 114.14 18.0302 114.137C21.9961 114.099 25.9641 114.263 29.9277 113.991C32.1188 113.812 34.3143 113.703 36.5073 113.568C38.8241 113.425 41.1374 113.234 43.4523 113.067C46.6509 112.836 49.8504 112.649 53.0548 112.547C55.0442 112.483 57.0232 112.686 59.0048 112.82C61.1634 112.966 63.2901 113.269 65.3576 113.929C65.5995 113.975 65.8376 114.052 66.0882 113.989C66.4012 113.845 66.5048 113.536 66.6473 113.263C67.8581 110.937 69.7407 109.596 72.3605 109.312C72.7253 109.273 73.1387 109.298 73.3758 108.911C73.3761 108.56 73.2191 108.26 73.0564 107.966C71.5499 105.243 69.3273 103.294 66.545 101.966Z" fill="#CDB299"/>
<path d="M98.6659 84.0278C100.759 82.5446 102.995 81.3022 105.27 80.1346C107.225 79.1318 109.218 78.2051 111.194 77.2445C111.924 76.9688 112.654 76.6931 113.498 76.3746C113.04 78.0187 112.611 79.5526 112.187 81.0878C112.043 81.6095 111.559 81.4873 111.229 81.5453C108.945 81.9458 106.676 82.4162 104.42 82.9518C102.49 83.4107 100.579 83.9446 98.7068 84.6082C98.508 84.6785 98.3166 84.8065 98.0866 84.7459C98.0213 84.2967 98.5614 84.3387 98.6659 84.0278Z" fill="#BEA38D"/>
<path d="M98.666 84.0278C98.7042 84.4544 98.1287 84.3838 98.0869 84.7456C97.7713 84.9407 97.4509 85.1248 97.0787 85.1899C97.4931 84.6453 98.1165 84.3874 98.666 84.0278Z" fill="#92806D"/>
<path d="M80.0799 113.945C80.5701 113.917 81.0652 113.934 81.5426 113.785C89.9664 113.527 98.3922 113.737 106.817 113.674C108.084 113.665 109.35 113.718 110.614 113.826C110.944 113.854 111.283 113.884 111.613 113.789C117.256 114.064 122.904 113.858 128.549 113.92C128.955 113.925 129.362 113.91 129.768 113.903C130.553 114.014 130.938 114.366 130.896 114.934C130.853 115.506 130.433 115.801 129.632 115.802C113.949 115.803 98.2651 115.802 82.5814 115.808C82.2812 115.808 81.9534 115.7 81.6848 115.942C81.1376 116.036 80.5862 116.027 80.0458 115.925C79.607 115.843 79.2007 115.676 79.247 115.099C79.2914 114.949 79.3677 114.835 79.5446 114.926C80.1252 115.226 80.1468 114.918 80.041 114.472C79.9978 114.29 79.921 114.11 80.0799 113.945Z" fill="#72A0B3"/>
<path d="M16.8722 113.9C20.839 113.881 24.8071 114.054 28.7719 113.792C29.176 113.765 29.5832 113.784 29.9889 113.781C31.1116 113.931 32.2336 113.757 33.3538 113.736C34.3819 113.716 35.4126 113.679 36.4407 113.677C45.5256 113.665 54.6106 113.675 63.6951 113.66C64.3173 113.659 64.9208 113.842 65.5423 113.772C65.7241 113.824 65.9058 113.877 66.0879 113.928C66.2111 114.079 66.1371 114.239 66.1111 114.397C66.0776 114.599 65.9576 114.856 66.2072 114.959C66.4794 115.072 66.5312 114.777 66.6361 114.61C66.7647 114.404 66.8062 114.092 67.1717 114.181C67.5339 114.431 67.6459 114.778 67.5091 115.18C67.3489 115.651 66.996 115.915 66.4993 115.962C65.7916 116.031 65.0717 115.922 64.3713 116.106C64.2044 115.67 63.8274 115.805 63.516 115.805C51.6629 115.802 39.8101 115.802 27.9571 115.802C24.3338 115.802 20.7109 115.802 17.0877 115.803C16.7023 115.803 16.3134 115.828 16.0278 115.488C15.7907 115.207 15.7266 114.895 15.8508 114.548C16.0229 114.068 16.4151 113.932 16.8722 113.9Z" fill="#72A0B3"/>
<path d="M75.4784 109.411C75.5759 109.429 75.6733 109.448 75.7708 109.467C77.8123 110.375 79.1 112.011 80.0799 113.944C80.1204 114.102 80.1433 114.267 80.2053 114.416C80.3318 114.72 80.4022 115.031 80.0879 115.237C79.7035 115.489 79.5636 115.116 79.3773 114.892C78.6204 112.637 77.3104 110.815 74.9383 110.19C71.6367 109.32 68.3285 110.795 67.0082 114.19C66.9079 114.429 66.812 114.669 66.7052 114.906C66.5926 115.155 66.4417 115.397 66.1233 115.262C65.8444 115.145 65.7874 114.883 65.8688 114.602C65.9344 114.375 66.0145 114.153 66.0882 113.928C66.8976 112.161 68.0219 110.687 69.8205 109.813C70.9207 109.279 72.0903 109.098 73.2902 109.032C73.4665 109.218 73.6837 109.126 73.8883 109.121C74.1846 109.145 74.4805 109.169 74.7771 109.193C75.0113 109.266 75.2449 109.338 75.4784 109.411Z" fill="#B81223"/>
<path d="M93.3368 101.487C94.3453 101.263 95.3541 101.265 96.3626 101.486C95.3541 101.487 94.3453 101.487 93.3368 101.487Z" fill="#CAC8B4"/>
<path d="M56.6037 110.45C56.5941 109.731 56.5844 109.013 56.5745 108.294C56.4397 107.576 56.6456 106.848 56.5101 106.13C56.5014 106.022 56.4928 105.913 56.4841 105.805C56.3541 105.664 56.3467 105.517 56.4641 105.365C56.4683 104.469 56.4722 103.572 56.4763 102.675C56.5349 102.613 56.6066 102.585 56.6916 102.589C58.9254 102.565 61.1209 102.851 63.2801 103.421C63.5562 103.493 63.8434 103.541 64.0776 103.726C64.142 103.789 64.1593 103.862 64.1301 103.947C64.0757 106.763 64.021 109.578 63.9634 112.554C63.4432 112.171 63.0485 111.88 62.6538 111.589C62.3453 111.492 62.069 111.335 61.8158 111.134C61.736 111.083 61.664 111.022 61.5896 110.963C59.978 109.704 60.586 109.77 58.8588 110.794C58.6973 110.916 58.4991 110.943 58.3151 111.009C57.7281 111.142 57.3066 111.596 56.7189 111.848C56.5397 111.54 56.68 111.198 56.5957 110.896C56.5021 110.746 56.4921 110.597 56.6037 110.45Z" fill="#B81223"/>
<path d="M80.369 115.783C79.8408 115.706 79.2614 115.688 79.3773 114.892C79.5307 114.685 79.4525 114.469 79.3673 114.278C78.8449 113.113 78.2185 112.018 77.2158 111.186C75.9374 110.125 74.4798 109.718 72.8212 109.806C70.2785 109.941 68.4449 111.149 67.189 113.314C67.04 113.571 66.8605 113.856 67.0085 114.19C67.3231 114.45 67.5351 114.768 67.3399 115.174C67.1436 115.583 66.8168 115.821 66.3194 115.79C65.8485 115.76 65.3743 115.787 64.9017 115.783C64.654 115.78 64.4182 115.785 64.3713 116.107C64.5292 116.816 65.0346 117.067 65.6912 117.068C70.5774 117.073 75.4635 117.075 80.3497 117.065C81.0813 117.064 81.5763 116.717 81.6851 115.941C81.2775 115.63 80.8062 115.848 80.369 115.783Z" fill="#39778D"/>
<path d="M104.531 113.116C99.5937 112.617 94.657 112.113 89.6849 112.488C86.9364 112.695 84.2046 113.024 81.5429 113.785C81.7411 113.989 81.9952 113.905 82.2255 113.906C91.7444 113.91 101.264 113.91 110.782 113.905C111.06 113.905 111.361 113.999 111.613 113.789C109.252 113.565 106.89 113.355 104.531 113.116Z" fill="#39778D"/>
<path d="M65.5423 113.772C65.0379 113.621 64.5402 113.44 64.0281 113.322C60.2395 112.448 56.3824 112.27 52.5215 112.361C44.9935 112.539 37.5029 113.359 29.9885 113.781C30.2105 113.997 30.49 113.905 30.7429 113.906C42.117 113.91 53.4914 113.909 64.8654 113.903C65.0948 113.903 65.3515 113.992 65.5423 113.772Z" fill="#39778D"/>
<path d="M56.616 102.65C56.9039 101.988 57.5038 102.063 58.0604 102.035C60.162 102.151 62.2343 102.439 64.2439 103.096C64.4279 103.377 64.4472 103.625 64.1024 103.799C62.4003 103.382 60.6822 103.062 58.9396 102.858C58.3184 102.785 57.7049 102.796 57.0889 102.816C56.8888 102.822 56.7138 102.885 56.616 102.65Z" fill="#DD7475"/>
<path d="M113.389 105.7C110.799 105.153 108.196 104.667 105.595 104.174C102.613 103.609 99.6008 103.252 96.573 103.1C92.3157 102.888 88.1932 103.624 84.2027 105.108C82.9767 105.563 81.7684 106.064 80.6634 106.779C81.8437 106.391 82.9905 105.921 84.1621 105.523C87.2758 104.466 90.4605 103.765 93.7617 103.653C97.2199 103.535 100.628 103.944 104.034 104.492C108.628 105.231 113.191 106.132 117.768 106.961C118.643 107.119 119.505 107.403 120.421 107.314C118.077 106.773 115.741 106.197 113.389 105.7Z" fill="#95806D"/>
<path d="M80.647 109.428C88.679 106.032 97.0019 106 105.444 107.344C96.9668 105.595 88.6189 105.338 80.647 109.428Z" fill="#95806D"/>
<path d="M83.4313 111.013C89.8712 108.985 96.4141 109.235 102.984 110.094C96.3984 108.892 89.8455 108.42 83.4313 111.013Z" fill="#95806D"/>
<path d="M57.3623 101.934C54.9689 101.928 52.5807 101.936 50.1911 102.186C47.8869 102.428 45.6016 102.761 43.3237 103.17C40.5735 103.665 37.8777 104.403 35.1501 104.998C33.8479 105.282 32.5656 105.657 31.2744 105.991C31.4391 106.094 31.5845 106.106 31.7196 106.074C36.2677 104.984 40.8338 104.003 45.4681 103.329C49.1257 102.797 52.7882 102.573 56.4767 102.674C56.523 102.665 56.5697 102.657 56.6163 102.65C57.0525 102.339 57.6206 102.338 58.0607 102.035C57.8455 101.88 57.5971 101.934 57.3623 101.934Z" fill="#95806D"/>
<path d="M55.9722 107.768C53.2211 107.567 50.4665 107.7 47.7231 107.893C45.4194 108.055 43.1206 108.331 40.8366 108.704C39.3285 108.95 37.8079 109.123 36.3265 109.53C43.0508 108.674 49.7668 107.732 56.5748 108.295C56.5924 107.572 56.3737 107.798 55.9722 107.768Z" fill="#95806D"/>
<path d="M39.0924 111.557C44.9118 110.927 50.7431 110.637 56.5957 110.896C56.5983 110.747 56.6012 110.598 56.6037 110.45C50.7357 110.327 44.8835 110.456 39.0924 111.557Z" fill="#95806D"/>
<path d="M56.4844 105.805C56.4776 105.659 56.4712 105.512 56.4644 105.365C56.1932 105.241 55.9047 105.255 55.6171 105.254C52.746 105.245 49.8919 105.508 47.0459 105.845C45.3847 106.042 43.7334 106.323 42.0777 106.567C46.8716 106.09 51.649 105.448 56.4844 105.805Z" fill="#95806D"/>
<path d="M64.244 103.096C64.2732 103.346 64.2388 103.583 64.1024 103.799C64.1117 103.849 64.1208 103.898 64.1301 103.947C66.7171 104.565 68.8567 105.979 70.8145 107.721C69.1848 105.379 66.8873 103.991 64.244 103.096Z" fill="#95806D"/>
<path d="M61.563 110.946C60.6404 110.734 59.721 110.457 58.7601 110.719C58.5545 110.727 58.42 110.845 58.3155 111.009C59.7618 111.202 61.2078 111.396 62.6542 111.589C62.4241 111.402 62.1941 111.215 61.9641 111.028C61.81 111.095 61.6965 110.976 61.563 110.946Z" fill="#95806D"/>
<path d="M109.412 77.6418C107.936 78.0784 105.687 78.7746 102.986 79.7416C93.8969 82.9954 87.3881 85.4002 81.937 91.0127C80.6097 92.3792 78.7401 94.5589 76.9785 97.7227C76.7797 91.89 76.0285 87.144 75.3366 83.7734C74.7395 80.8656 74.2814 78.684 73.1996 75.7684C71.6886 71.6962 69.557 67.9436 67.0134 64.4174C65.6607 62.542 64.261 60.706 62.842 58.8823C62.5116 58.4576 62.1961 58.2671 61.6502 58.6176C59.2802 60.1385 56.8894 61.6263 54.5022 63.1199C52.6656 64.269 50.8233 65.4086 48.9835 66.5526C50.2349 67.7073 51.4834 68.8671 52.701 70.0553C54.4529 71.7649 56.1872 73.4932 57.8407 75.3041C59.1027 76.6858 60.3939 78.0449 61.6202 79.4565C64.2668 82.503 66.8056 85.6414 69.1118 88.9584C70.7846 91.3644 72.4268 93.7908 73.6531 96.4739C74.6018 98.5495 75.2133 100.708 75.4569 102.976C75.4758 103.152 75.3935 103.446 75.6505 103.484C75.6483 103.487 75.6476 103.491 75.6454 103.495C75.6454 105.001 75.6454 106.507 75.6454 108.126C76.9881 106.274 78.2479 104.537 79.5076 102.8C79.8206 102.826 79.9393 102.499 80.0918 102.299C82.3488 99.3388 84.7448 96.4913 87.2604 93.7557C90.2161 90.5412 93.4472 87.6179 97.0897 85.1822L97.0794 85.1903C97.6189 84.7866 98.233 84.5028 98.7837 84.1181C102.547 81.6688 106.513 79.5965 110.603 77.7553C110.674 77.7231 110.865 77.616 111.13 77.4806C112.079 76.9953 112.893 76.631 113.498 76.3749C112.601 76.6468 111.169 77.0856 109.412 77.6418Z" fill="#F7F7E0"/>
<path d="M72.0903 101.624C71.9015 101.208 71.6676 100.815 71.3755 100.459C71.2684 100.365 71.1635 100.27 71.0593 100.173C71.0288 100.093 70.9956 100.015 70.9519 99.9437C69.0475 96.825 66.8082 93.9656 64.3208 91.3102C62.6413 89.5171 60.9032 87.7801 59.0155 86.2037C56.3445 83.973 53.5599 81.8987 50.7023 79.9228C49.9351 79.393 49.1678 78.8629 48.4006 78.3331C48.4012 78.3941 48.3893 78.4447 48.3697 78.4888C47.828 77.8956 47.2094 77.4228 46.3884 77.2645C46.3128 77.3567 46.2536 77.4738 46.1587 77.537C45.0543 78.2741 44.0008 79.0793 42.935 79.8709C40.5478 81.6437 38.3767 83.6615 36.2065 85.6768C34.0264 87.7014 32.0072 89.8931 29.9612 92.0548C29.828 92.1957 29.6868 92.3276 29.6897 92.5426C29.8457 92.7612 30.0821 92.8302 30.3231 92.8202C31.0244 92.7912 31.7041 92.9634 32.3948 93.0124C35.162 93.2078 37.9224 93.4709 40.6845 93.7276C43.7792 94.0152 46.8684 94.3361 49.9515 94.732C54.0872 95.2634 58.19 95.9496 62.2125 97.0698C64.9977 97.8456 67.6983 98.8039 70.0109 100.625C70.5613 101.058 71.0284 101.573 71.5251 102.06C71.6914 102.223 71.9105 102.482 72.1286 102.337C72.4066 102.152 72.1939 101.853 72.0903 101.624Z" fill="#F7F7E0"/>
<path d="M74.1533 108.53C74.0771 107.997 74.0317 107.455 73.7724 106.967C73.6682 106.822 73.5981 106.657 73.5202 106.497C72.9936 104.082 71.5817 102.199 69.7098 100.641C68.0711 99.2767 66.1088 98.4944 64.1088 97.7966C60.0066 96.3656 55.7609 95.6018 51.4792 95.0056C49.2354 94.6931 46.9864 94.4203 44.7252 94.2443C42.3962 94.0631 40.0736 93.7996 37.7481 93.572C36.8367 93.5449 35.9363 93.3301 35.0185 93.4088C35.0143 93.414 35.0105 93.4188 35.0063 93.424C34.9944 93.394 34.9799 93.363 34.9599 93.3305C34.3542 93.1015 33.7086 93.1186 33.0809 93.0274C32.7605 92.9809 32.4263 92.8768 32.1365 93.1334C32.1313 93.285 32.066 93.4062 31.9605 93.5136C29.957 95.5534 28.0931 97.7202 26.1948 99.8571C24.4538 101.817 22.69 103.756 21.0503 105.804C23.7782 105.498 26.4766 104.994 29.165 104.461C33.8462 103.533 38.505 102.492 43.1808 101.534C46.3871 100.877 49.6288 100.416 52.8946 100.227C55.6914 100.064 58.4911 100.198 61.266 100.637C64.0384 101.076 66.6579 101.911 68.9403 103.625C70.8499 105.059 72.4104 106.769 73.2906 109.032C73.4195 109.357 73.6644 109.293 73.9127 109.217C74.1617 109.047 74.1919 108.799 74.1533 108.53Z" fill="#F7F7E0"/>
<path d="M75.3577 105.538C75.3079 105.327 75.2452 105.121 75.1969 104.911C75.231 102.163 74.6584 99.5269 73.5871 96.9944C71.9928 93.226 69.5512 89.9838 67.1417 86.7297C65.1752 84.0743 63.1215 81.4844 60.9456 78.9968C59.0376 76.8154 57.1255 74.6367 55.0384 72.6217C54.3091 71.8507 53.5898 71.0698 52.7756 70.3852C52.7852 70.3659 52.7971 70.3491 52.8055 70.3285C52.2741 69.4392 51.4521 68.8591 50.6318 68.2774C50.6219 68.2703 50.5897 68.2945 50.5678 68.3042C50.4764 68.4793 50.3426 68.6069 50.1679 68.7017C47.3113 70.2482 44.6847 72.1438 42.0729 74.0621C42.2775 74.3771 42.605 74.5409 42.9064 74.7328C47.8614 77.8885 52.7701 81.1101 57.4401 84.686C60.4994 87.0286 63.2753 89.6691 65.7922 92.5778C68.3095 95.4866 70.5864 98.5789 72.4046 101.982C73.5157 104.061 74.5004 106.199 74.5957 108.625C74.6053 108.871 74.577 109.19 74.9772 109.191C75.2477 109.041 75.2355 108.761 75.2815 108.511C75.4639 107.524 75.4304 106.531 75.3577 105.538Z" fill="#F7F7E0"/>
<path d="M125.251 105.101C123.047 101.842 120.805 98.6069 118.674 95.3005C118.022 94.2887 117.214 93.7944 116.099 93.5177C113.256 92.8122 110.394 92.2328 107.499 91.7797C105.83 91.5186 104.158 91.2032 102.482 91.1381C100.102 91.0455 97.7086 90.9756 95.3291 91.3773C92.7929 91.8055 90.3564 92.5007 88.0775 93.7086C87.8941 93.8057 86.8489 94.5537 86.8087 94.5679C86.6366 94.7324 86.4471 94.8826 86.2943 95.0638C84.9809 96.6196 83.6426 98.1561 82.3729 99.7474C80.806 101.711 79.2683 103.7 77.8959 105.809L77.8953 105.81C76.974 106.932 76.1771 108.139 75.4781 109.411C75.5604 109.509 75.6586 109.525 75.7705 109.468C75.9761 109.178 76.153 108.861 76.3923 108.602C78.1764 106.67 80.2417 105.137 82.6399 104.028C86.0418 102.456 89.629 101.734 93.3365 101.487C94.345 101.375 95.3538 101.376 96.3623 101.487C97.8666 101.475 99.3583 101.662 100.856 101.754C103.885 101.94 106.827 102.641 109.805 103.128C111.235 103.362 112.621 103.834 114.075 103.946C114.679 104.188 115.329 104.2 115.956 104.319C119.153 104.924 122.363 105.448 125.599 105.801C125.558 105.529 125.4 105.321 125.251 105.101Z" fill="#F6F7E0"/>
<path d="M61.9641 111.029C61.1331 111.205 60.3534 110.808 59.5369 110.809C59.2779 110.809 59.019 110.751 58.76 110.719C59.1193 110.32 59.6421 110.164 60.0558 109.844C60.3199 109.641 60.5 109.858 60.6805 109.998C61.1129 110.336 61.5369 110.685 61.9641 111.029Z" fill="#CDB098"/>
<path d="M42.073 74.0618C53.6761 80.4726 76.1395 97.6973 74.2692 109.315C73.4779 108.37 73.6609 105.685 72.4034 104.146C65.8808 93.0061 36.9786 94.776 29.582 92.8371C43.9224 93.2856 66.7297 95.2932 72.1062 102.299C64.3312 87.7857 51.844 81.9391 42.073 74.0618Z" fill="#AD9680"/>
<path d="M79.5127 102.792C84.534 96.3768 89.9957 89.5955 97.089 85.1822C83.2231 94.7569 73.508 114.996 75.1309 108.084C76.602 92.1473 57.2359 75.6446 50.148 67.9139C49.6742 67.6611 48.2429 65.8783 49.7163 66.9805C62.5997 79.4704 77.045 94.5969 75.8133 107.054C75.3008 109.459 78.1935 103.345 79.5127 102.792Z" fill="#92806D"/>
<path d="M107.023 28.4731C107.21 27.8789 107.54 27.4168 108.103 27.1002C112.01 24.9037 115.914 22.6998 119.805 20.4743C120.208 20.2434 120.427 20.2782 120.622 20.6703C120.977 20.9334 121.202 21.2968 121.414 21.6744C124.483 27.1434 127.552 32.6121 130.643 38.0681C130.853 38.4383 131.131 38.7943 131.073 39.266C130.954 39.6549 130.603 39.7942 130.296 39.9703C126.761 41.9968 123.204 43.9847 119.655 45.9877C118.835 46.4504 118.075 46.9067 117.939 47.9472C117.927 48.0423 117.844 48.1107 117.759 48.1613C117.303 48.0839 117.206 47.6651 117.024 47.3478C114.972 43.7748 112.985 40.1647 110.941 36.5875C109.812 34.6112 108.698 32.6266 107.591 30.6374C107.359 30.2208 107.111 29.8058 106.999 29.3315C106.881 29.0423 106.879 28.7556 107.023 28.4731Z" fill="#F6F7E0"/>
<path d="M103.923 29.5153C104.249 29.2503 104.611 29.0516 105.006 28.9117C105.182 28.9694 105.261 29.1174 105.342 29.2667C107.338 32.9403 109.437 36.5559 111.474 40.206C112.75 42.4924 114.08 44.7483 115.324 47.0521C115.51 47.3962 115.687 47.7373 115.519 48.1433C115.368 48.4403 115.088 48.5854 114.817 48.7395C111.312 50.7325 107.795 52.703 104.281 54.6796C103.919 54.883 103.562 55.2061 103.084 54.962C102.528 54.4406 102.262 53.728 101.899 53.086C98.9739 47.8995 96.0432 42.7159 93.1345 37.52C92.9357 37.1647 92.7105 36.8177 92.7269 36.3843C92.6751 36.1641 92.4036 35.9703 92.807 35.7469C95.9403 34.0131 99.0594 32.2538 102.183 30.5023C102.424 30.5449 102.534 30.7361 102.64 30.9212C103.327 32.121 104.011 33.3221 104.689 34.5274C104.818 34.7563 104.931 34.9956 104.878 35.2738C104.739 35.6169 104.414 35.7433 104.126 35.9091C101.987 37.1427 99.8273 38.3419 97.6935 39.5862C99.7945 38.439 101.872 37.2492 103.955 36.0693C104.303 35.872 104.629 35.5966 105.069 35.6105C105.483 35.8336 105.657 36.1877 105.636 36.6484C105.234 37.2972 104.523 37.5326 103.91 37.8686C102.084 38.8675 100.306 39.948 98.483 40.9505C100.392 39.9113 102.291 38.8546 104.178 37.7751C104.711 37.4703 105.213 37.0853 105.841 36.9689C106.266 37.1805 106.437 37.5371 106.426 37.9969C106.246 38.438 105.823 38.6005 105.455 38.8111C103.497 39.9309 101.536 41.0456 99.5626 42.1377C99.4799 42.1835 99.3924 42.2235 99.3152 42.3499C101.403 41.181 103.435 39.9983 105.495 38.8656C105.866 38.6615 106.205 38.3529 106.68 38.4145C107.053 38.6624 107.245 39.0052 107.227 39.4585C106.95 39.918 106.456 40.0905 106.026 40.3298C104.208 41.3403 102.418 42.4005 100.583 43.3811C100.421 43.4675 100.249 43.5436 100.036 43.7783C102.243 42.5427 104.317 41.3168 106.437 40.1747C106.748 40.007 107.036 39.7665 107.423 39.7852C107.837 40.0048 108.015 40.3533 107.984 40.8157C107.765 41.2594 107.318 41.4187 106.929 41.6412C104.897 42.8023 102.854 43.9434 100.833 45.1239C103.021 43.9421 105.168 42.6872 107.337 41.4703C107.605 41.3197 107.852 41.1091 108.194 41.1494C108.58 41.3822 108.809 41.7057 108.783 42.1755C108.669 42.4986 108.382 42.6375 108.114 42.7923C105.941 44.0505 103.729 45.2393 101.571 46.523C103.568 45.4663 105.516 44.3217 107.488 43.2186C107.961 42.9545 108.388 42.5676 108.979 42.5708C109.31 42.84 109.742 42.9948 109.935 43.4207C109.834 43.6929 109.59 43.8061 109.361 43.9341C107.064 45.219 104.769 46.5056 102.494 47.8312C105.258 46.3076 107.988 44.7228 110.771 43.2334C110.981 43.1557 111.195 43.1818 111.408 43.216C110.468 41.6808 109.616 40.0957 108.736 38.5273C107.235 35.8543 105.726 33.1857 104.221 30.5152C104.05 30.2102 103.805 29.9132 103.923 29.5153Z" fill="#F6F7E0"/>
<path d="M92.7272 36.3837C94.9794 40.3633 97.2328 44.3423 99.4831 48.3229C100.709 50.4913 101.929 52.663 103.151 54.8331C103.485 55.3022 103.862 55.0788 104.222 54.8869C105.45 54.233 106.648 53.5265 107.859 52.8429C110.113 51.5702 112.365 50.2911 114.617 49.0145C115.339 48.605 116.065 48.438 116.888 48.6582C117.59 48.8459 118.443 48.3406 118.614 47.6267C118.792 46.889 119.219 46.4153 119.862 46.05C123.3 44.094 126.754 42.1655 130.184 40.1963C130.566 39.9774 131.058 39.8307 130.999 39.2299C128.22 34.2791 125.438 29.3299 122.662 24.3771C121.972 23.1467 121.302 21.9059 120.622 20.67C121.22 20.2276 121.583 20.385 121.946 21.0376C125.3 27.0554 128.683 33.0564 132.055 39.0639C132.491 39.8403 132.466 39.9335 131.661 40.3882C128.114 42.3918 124.568 44.3981 121.009 46.3798C120.475 46.6768 120.168 46.9586 120.288 47.6493C120.402 48.3029 120.111 48.871 119.497 49.219C118.871 49.5733 118.26 49.9554 117.621 50.2847C117.028 50.5903 116.099 50.4446 115.702 49.929C115.43 49.575 115.239 49.6459 114.935 49.8194C112.792 51.0447 110.644 52.2632 108.494 53.4765C106.928 54.36 105.341 55.2061 103.795 56.1225C103.161 56.4982 102.848 56.3747 102.505 55.7495C101.223 53.414 99.8932 51.1043 98.5843 48.7837C96.5332 45.1465 94.5004 41.499 92.42 37.8789C92.0356 37.2092 92.0185 36.7587 92.7272 36.3837Z" fill="#39778D"/>
<path d="M115.39 48.1024C115.457 47.8006 115.348 47.5558 115.201 47.2901C113.518 44.2582 111.759 41.2694 110.107 38.2194C108.66 35.5476 107.096 32.9394 105.585 30.3021C105.334 29.8636 105.122 29.4067 105.006 28.9111C105.451 28.5873 105.929 28.7102 106.405 28.8105C106.794 28.6399 106.911 29.0097 107.129 29.1771C108.017 30.9512 109.031 32.6547 109.996 34.3852C111.043 36.2619 112.115 38.1259 113.152 40.0093C114.52 42.495 115.935 44.9547 117.332 47.4246C117.473 47.6732 117.628 47.9137 117.776 48.1578C117.867 48.4229 117.637 48.369 117.559 48.3284C116.916 47.9934 116.254 48.014 115.578 48.1833C115.512 48.1994 115.444 48.1501 115.39 48.1024Z" fill="#E0E3CD"/>
<path d="M107.129 29.1774C106.798 29.2325 106.666 28.894 106.405 28.8108C106.536 28.5615 106.811 28.5767 107.022 28.4735C107.058 28.7079 107.093 28.9427 107.129 29.1774Z" fill="#39778D"/>
<path d="M115.39 48.1023C116.184 47.7002 116.957 47.6528 117.696 48.2342C117.707 48.2425 117.742 48.2355 117.753 48.2235C117.768 48.208 117.769 48.1803 117.776 48.1577C117.723 47.1524 118.199 46.5265 119.073 46.0409C122.889 43.9211 126.68 41.7543 130.477 39.601C130.662 39.4962 130.826 39.3547 131 39.2305C131.461 39.7216 131.138 39.9457 130.708 40.1879C127.075 42.2338 123.453 44.2981 119.817 46.3375C119.241 46.6603 118.925 47.1053 118.826 47.7431C118.713 48.4779 117.517 49.1686 116.839 48.9003C116.219 48.655 115.634 48.7075 115.049 49.039C111.442 51.082 107.82 53.0983 104.228 55.168C103.637 55.5085 103.346 55.4824 103.151 54.8333C103.383 55.02 103.562 54.8275 103.734 54.7311C107.566 52.5714 111.395 50.4049 115.224 48.2384C115.285 48.2035 115.335 48.1481 115.39 48.1023Z" fill="#E0E3CD"/>
<path d="M102.841 32.7324C103 32.9745 103.268 33.2196 102.77 33.4956C100.569 34.7144 98.3784 35.951 96.1893 37.1902C95.9101 37.3482 95.7312 37.3656 95.5491 37.047C95.358 36.7123 95.5231 36.5585 95.774 36.416C97.9412 35.1862 100.108 33.9567 102.279 32.732C102.44 32.6408 102.621 32.5305 102.841 32.7324Z" fill="#E0E3CD"/>
<path d="M113.531 45.1226C113.746 45.4867 113.458 45.5757 113.233 45.704C111.942 46.4369 110.654 47.175 109.362 47.906C107.591 48.9078 105.819 49.9087 104.041 50.897C103.869 50.9928 103.644 51.3126 103.447 50.9512C103.257 50.6049 103.638 50.5539 103.807 50.4575C106.822 48.7366 109.843 47.0286 112.868 45.3245C113.066 45.2126 113.266 45.0523 113.531 45.1226Z" fill="#E0E3CD"/>
<path d="M102.697 49.2735C103.491 48.8095 104.228 48.3652 104.978 47.9437C107.395 46.5849 109.817 45.2342 112.238 43.8829C112.406 43.789 112.585 43.5291 112.777 43.8251C112.969 44.1211 112.67 44.1992 112.505 44.293C109.803 45.8295 107.097 47.3582 104.392 48.8879C103.955 49.1349 103.518 49.3822 103.076 49.6211C102.956 49.6859 102.813 49.7775 102.696 49.6146C102.6 49.4812 102.608 49.3467 102.697 49.2735Z" fill="#E0E3CD"/>
<path d="M114.335 46.5321C114.561 46.9316 114.209 46.9935 114.007 47.1096C112.8 47.7993 111.587 48.4777 110.376 49.1594C108.558 50.1818 106.742 51.2062 104.922 52.2229C104.731 52.3293 104.479 52.614 104.305 52.3316C104.102 52.0001 104.492 51.8998 104.698 51.7831C107.721 50.0687 110.747 48.36 113.779 46.6623C113.936 46.5746 114.105 46.3299 114.335 46.5321Z" fill="#E0E3CD"/>
<path d="M109.917 43.3383C110.221 43.2602 110.517 43.3179 110.812 43.3931C108.043 44.966 105.276 46.5408 102.504 48.1072C102.334 48.2033 102.091 48.4222 101.941 48.1582C101.767 47.8531 102.096 47.7683 102.291 47.6577C104.832 46.2167 107.374 44.7777 109.917 43.3383Z" fill="#E0E3CD"/>
<path d="M108.682 42.178C108.782 42.3399 108.881 42.5018 108.981 42.6636C106.703 43.937 104.426 45.2106 102.147 46.483C101.959 46.5881 101.768 46.6878 101.577 46.7874C101.419 46.8696 101.258 47.0715 101.096 46.8042C100.939 46.5459 101.162 46.4727 101.324 46.3805C102.302 45.8243 103.283 45.2732 104.26 44.7147C105.735 43.8715 107.208 43.0238 108.682 42.178Z" fill="#E0E3CD"/>
<path d="M104.801 35.279C104.882 35.4193 104.962 35.5592 105.043 35.6995C102.612 37.084 100.181 38.4677 97.7501 39.8535C97.5713 39.9554 97.3902 40.1779 97.2161 39.8771C97.0488 39.5878 97.3097 39.5124 97.4934 39.4085C99.9293 38.0324 102.365 36.6555 104.801 35.279Z" fill="#E0E3CD"/>
<path d="M107.147 39.4467C107.231 39.5856 107.315 39.7249 107.399 39.8639C104.981 41.2314 102.564 42.5989 100.147 43.966C99.962 44.0708 99.741 44.2504 99.585 43.9947C99.4106 43.7087 99.7224 43.6368 99.8906 43.5414C102.307 42.1729 104.728 40.8106 107.147 39.4467Z" fill="#E0E3CD"/>
<path d="M105.565 36.6407C105.643 36.7819 105.721 36.9231 105.799 37.0644C103.853 38.1849 101.908 39.307 99.9608 40.4239C99.4844 40.6974 99.0002 40.9576 98.5158 41.2165C98.3453 41.3078 98.1561 41.5599 97.9785 41.252C97.8048 40.9508 98.1156 40.8786 98.2751 40.787C99.7469 39.9416 101.228 39.1122 102.704 38.2748C103.659 37.7331 104.612 37.1856 105.565 36.6407Z" fill="#E0E3CD"/>
<path d="M106.331 38.0049C106.43 38.1691 106.529 38.3332 106.629 38.497C104.234 39.84 101.839 41.1843 99.4416 42.5243C99.2496 42.6317 99.0064 42.9 98.8301 42.6098C98.6551 42.3215 98.9915 42.218 99.1855 42.1071C101.466 40.8031 103.75 39.504 106.032 38.2023C106.136 38.1436 106.232 38.071 106.331 38.0049Z" fill="#E0E3CD"/>
<path d="M107.916 40.8141C107.997 40.9524 108.077 41.0904 108.158 41.2287C105.709 42.6285 103.26 44.0276 100.812 45.428C100.65 45.5205 100.475 45.6966 100.335 45.4283C100.151 45.0742 100.517 45.0213 100.684 44.9256C102.715 43.7593 104.758 42.6117 106.797 41.458C107.172 41.2458 107.543 41.0288 107.916 40.8141Z" fill="#E0E3CD"/>
<path d="M96.4401 38.1943C96.7055 38.0333 96.9668 37.865 97.2367 37.7125C99.1922 36.6088 101.147 35.5028 103.112 34.4165C103.275 34.3265 103.511 33.9783 103.699 34.3314C103.842 34.6019 103.551 34.7399 103.342 34.8573C101.198 36.0645 99.0545 37.274 96.9044 38.4709C96.7667 38.5477 96.6065 38.7885 96.4118 38.5547C96.3179 38.4425 96.2664 38.2987 96.4401 38.1943Z" fill="#E0E3CD"/>
<path d="M103.923 29.5153C106.517 34.1134 109.11 38.7118 111.711 43.3234C111.539 43.4088 111.005 43.6468 110.318 43.5198C109.577 43.3824 109.146 42.9094 109.027 42.7691C108.21 41.4938 107.394 40.1647 106.585 38.7811C104.919 35.9323 103.461 33.1596 102.184 30.5023C102.727 30.1093 103.313 29.7904 103.923 29.5153Z" fill="#C83F43"/>
<path d="M145.64 60.6004C142.889 58.3458 140.144 56.0839 137.397 53.8242C136.026 52.634 134.633 51.4706 133.169 50.3963C132.706 50.1863 132.586 50.6194 132.404 50.847C130.522 53.2025 128.655 55.5699 126.786 57.9363C124.09 61.3517 121.437 64.8021 118.694 68.181C118.429 68.5074 118.12 68.8279 118.163 69.3064C118.201 69.4457 118.26 69.5814 118.365 69.6746C119.511 70.6839 120.692 71.6502 121.91 72.5715C122.066 72.6895 122.244 72.7681 122.439 72.7143C122.52 73.1138 122.813 73.3618 123.108 73.6017C125.753 75.7559 128.403 77.9057 131.067 80.0364C131.286 80.2111 131.487 80.4343 131.814 80.3659C136.472 74.1372 141.126 67.9066 145.791 61.6841C146.129 61.2336 146.041 60.9286 145.64 60.6004ZM136.069 70.7151C135.267 71.715 134.542 72.7746 133.795 73.8174C133.141 74.7305 133.056 74.7451 132.201 74.0637C130.442 72.6611 128.704 71.2333 126.951 69.8229C126.541 69.4934 126.159 69.109 125.628 68.9662C125.613 68.6673 125.324 68.5225 125.131 68.341C124.55 67.7973 123.903 67.332 123.291 66.8248C122.823 66.4376 122.757 66.088 123.172 65.6144C123.864 64.8237 124.461 63.9548 125.129 63.1428C126.445 61.5432 126.436 61.5541 128.068 62.8707C128.475 63.1986 128.801 63.7158 129.425 63.6665C129.465 64.1485 129.86 64.3772 130.187 64.6425C132.086 66.1883 133.966 67.7593 135.871 69.2986C136.419 69.742 136.544 70.1231 136.069 70.7151Z" fill="#72A0B3"/>
<path d="M132.303 49.6888C132.182 49.5689 132.071 49.4386 131.94 49.3309C130.382 48.0453 129.665 48.1211 128.419 49.7027C126.73 51.8466 125.041 53.9903 123.355 56.1371C120.423 59.872 117.493 63.6091 114.563 67.3456C114.556 67.5155 114.67 67.6307 114.804 67.6287C115.652 67.6165 116.319 68.1043 117.048 68.4181C117.105 68.4226 117.157 68.4177 117.209 68.4139C117.526 68.7434 117.957 68.942 118.266 69.2806C120.031 67.0238 121.794 64.7654 123.561 62.5105C124.925 60.7713 126.288 59.032 127.662 57.3008C129.492 54.995 131.333 52.6973 133.169 50.396C132.93 50.0993 132.644 49.8604 132.303 49.6888Z" fill="#39778D"/>
<path d="M115.894 68.4806C115.473 68.1388 115.044 68.1553 114.715 68.5325C114.644 68.5425 114.571 68.5558 114.496 68.577C113.294 69.3715 113.214 70.2602 114.264 71.1859C115.097 71.9205 115.991 72.5808 116.85 73.2831C120.53 76.2906 124.21 79.298 127.906 82.2855C128.266 82.576 128.596 82.9968 129.162 82.8697C129.567 82.3351 129.971 81.8005 130.376 81.2656C130.538 81.0744 130.701 80.8828 130.863 80.6916C125.876 76.6188 120.893 72.5399 115.894 68.4806Z" fill="#F6F7E0"/>
<path d="M125.607 69.1555C124.676 68.3778 123.757 67.5862 122.81 66.8291C122.399 66.5002 122.302 66.2126 122.658 65.775C123.729 64.4568 124.796 63.1345 125.826 61.7841C126.241 61.2398 126.565 61.2414 127.061 61.6806C127.844 62.3742 128.684 63.0033 129.5 63.6598C131.815 65.5789 134.115 67.5185 136.46 69.3999C136.956 69.7975 136.921 70.0526 136.595 70.4866C135.571 71.8499 134.542 73.2115 133.571 74.6126C133.193 75.1572 132.951 75.0482 132.52 74.6971C130.229 72.8333 127.914 70.9996 125.607 69.1555Z" fill="#C83F43"/>
<path d="M118.384 75.3503C117.022 74.0019 112.798 71.4474 112.915 69.9665C113.218 68.4687 114.591 66.6456 116.293 67.6906C118.764 69.2755 120.633 71.3117 123.092 73.1728C125.852 75.8691 129.653 77.827 131.676 80.5801C130.377 81.597 127.421 77.7903 126.407 77.3537C123.133 74.7148 120.023 72.1742 116.759 69.5208C116.167 69.0975 115.661 68.3178 114.814 68.6102C112.21 70.1686 115.259 71.412 116.506 72.6308C120.806 76.3776 125.494 79.4615 129.386 83.364C129.566 85.3555 118.187 75.5744 118.384 75.3503Z" fill="#72A0B3"/>
<path d="M54.6546 22.2522C55.2053 23.2408 55.7561 24.2294 56.3068 25.2177C56.4374 25.418 56.4725 25.6405 56.4313 25.8694C56.2608 26.8235 56.7147 27.4271 57.4347 28.0059C58.42 28.7979 59.3693 28.9716 60.4341 28.2439C62.0217 28.1233 63.5282 28.6192 65.0578 28.8962C69.611 29.721 74.1652 30.5387 78.7162 31.3764C81.2479 31.8424 83.7803 32.3019 86.3139 32.7565C86.6672 32.82 87.023 32.8697 87.3215 33.0948C87.7355 33.1854 88.1466 33.2953 88.5645 33.3611C88.973 33.4253 89.298 33.5884 89.1969 34.0444C89.1062 34.4542 88.7356 34.4381 88.3927 34.3768C86.3004 34.0018 84.2075 33.6287 82.1149 33.2537C75.3886 32.0491 68.6614 30.8483 61.9374 29.6317C61.3731 29.5295 60.8771 29.5059 60.3466 29.8139C58.3084 30.9979 54.6034 28.3519 55.0493 26.0235C55.1632 25.4286 55.0808 24.9246 54.6607 24.4851C53.7358 23.8022 53.3061 22.8545 53.1973 21.7353C49.3357 14.8408 45.4738 7.94629 41.6125 1.05144C41.4334 0.731577 41.2108 0.354317 41.6199 0.100875C42.0806 -0.184489 42.3142 0.188902 42.5152 0.558102C42.7333 0.958257 42.9778 1.34358 43.2107 1.73535C43.5807 1.91269 43.8004 2.22869 43.9924 2.57467C47.0192 8.02754 50.1094 13.4446 53.096 18.9197C53.3813 19.6936 53.9247 20.324 54.2824 21.0579C54.4677 21.438 54.7128 21.7966 54.6546 22.2522Z" fill="#C83F43"/>
<path d="M53.1973 21.7354C53.6853 22.6521 54.173 23.5688 54.6607 24.4852C53.6261 25.9416 52.5919 27.3985 51.5084 28.9243C51.1024 28.3461 51.484 27.5374 50.9947 27.3291C50.5533 27.1415 49.9312 27.381 49.1346 27.4562C50.57 25.4351 51.8835 23.5852 53.1973 21.7354Z" fill="#39778D"/>
<path d="M46.8619 2.89053C46.7023 2.6803 46.5457 2.49102 46.2587 2.42911C45.2403 2.20888 44.2263 1.96834 43.2107 1.73553C46.4553 7.55567 49.6999 13.3755 52.9445 19.1953C54.2521 19.2817 55.2085 18.63 56.0401 17.7156C53.5795 12.4014 50.3941 7.53826 46.8619 2.89053Z" fill="#F0A9AA"/>
<path d="M86.9673 32.5305C86.3008 31.0131 85.3338 29.978 83.5413 29.7217C81.8682 29.4824 80.2456 28.902 78.5924 28.5074C73.342 27.2537 68.0936 25.9839 62.6869 25.5812C62.4737 25.5654 62.2089 25.6789 61.9387 25.3742C64.4492 25.181 66.8175 25.4248 69.1793 25.7937C74.4573 26.6185 79.6269 27.9066 84.7377 29.4483C85.006 29.5292 85.4068 29.8381 85.5622 29.3425C85.6789 28.971 85.2771 28.9843 85.0468 28.9165C78.5769 27.0125 72.0723 25.2729 65.3165 24.7148C65.1386 24.6999 64.8568 24.8386 64.7734 24.4591C65.0813 24.4213 65.3695 24.3768 65.6597 24.3517C70.1573 23.9654 74.615 24.411 79.0592 25.0382C81.0337 25.3168 82.9931 25.7021 84.9612 26.0281C85.19 26.0661 85.521 26.2425 85.5844 25.8201C85.6339 25.4886 85.3209 25.5077 85.1185 25.439C85.0265 25.4077 84.9259 25.4029 84.8293 25.3842C79.5214 24.3607 74.1874 23.5678 68.7637 23.5968C67.5789 23.6033 66.3941 23.6675 65.2093 23.7049C65.4352 23.5175 65.6745 23.4424 65.919 23.3953C69.6973 22.6676 73.5206 22.5005 77.3532 22.555C79.7402 22.5889 82.1255 22.7453 84.5122 22.831C84.7306 22.8388 85.0816 23.0361 85.1475 22.6192C85.2305 22.0949 84.793 22.2648 84.5488 22.2361C83.9971 22.1716 83.4412 22.1349 82.886 22.1062C76.9936 21.8018 71.1079 21.7009 65.284 22.892C64.1909 23.1154 63.1235 23.465 61.8274 23.8148C63.7041 22.2874 65.5043 21.0527 67.3766 19.9165C71.6953 17.2953 76.2302 15.1091 80.8645 13.118C81.1302 13.0039 81.6375 12.969 81.4339 12.506C81.2582 12.1068 80.9172 12.438 80.6786 12.5354C78.0413 13.6126 75.4613 14.8186 72.9245 16.1122C68.5427 18.3465 64.2909 20.7925 60.4624 24.1763C60.862 22.89 61.2721 21.786 61.5465 20.6487C63.0485 14.4288 63.0932 8.11205 62.7262 1.77214C62.7034 1.3794 62.6693 0.986983 62.6361 0.59489C62.6223 0.433022 62.6133 0.243424 62.391 0.246004C62.1726 0.248583 62.0133 0.35499 62.0236 0.606175C62.0317 0.802544 62.0542 0.998268 62.0667 1.19464C62.3981 6.37698 62.3958 11.5509 61.6691 16.7059C61.5868 17.2895 61.4806 17.8699 61.3751 18.45C61.2766 18.9897 61.1641 19.5269 61.0576 20.0654C61.3214 13.6126 60.6658 7.26273 59.6386 0.939905C59.5865 0.618427 59.7666 -0.0319443 59.1795 0.0570506C58.6619 0.135405 59.018 0.662603 59.0544 0.965057C59.3182 3.14608 59.672 5.3171 59.893 7.50231C60.3849 12.3687 60.7545 17.2421 59.9722 22.1165C59.8638 22.792 59.794 23.4917 59.3549 24.1676C59.0341 22.7562 58.7867 21.4368 58.4326 20.1467C56.6732 13.7361 54.0456 7.65773 51.2987 1.62833C51.1742 1.35489 51.1678 0.730639 50.6775 0.954094C50.2079 1.1682 50.664 1.57931 50.7602 1.88435C50.8676 2.22582 51.0517 2.54246 51.1993 2.87135C53.4676 7.92923 55.6145 13.0358 57.268 18.3352C57.6994 19.7175 58.1167 21.1089 58.1759 22.5966C57.9034 21.9472 57.6312 21.2981 57.3588 20.6487C56.2065 20.8112 55.1896 21.2053 54.5771 22.2867C54.8283 23.4985 55.4257 24.5255 56.2434 25.4345C57.5704 26.1361 58.9331 26.7829 59.9973 27.8889C60.0484 27.9186 60.1012 27.9411 60.1543 27.9634C60.1591 28.1827 60.3868 28.2829 60.5844 28.3997C65.5394 29.2757 70.4935 30.1557 75.4494 31.0263C79.4059 31.7212 83.3644 32.4048 87.3218 33.0935C87.2034 32.9068 87.0854 32.7188 86.9673 32.5305Z" fill="#F0A9AA"/>
<path d="M52.9445 19.1951C54.0302 18.8146 55.0162 18.2255 56.0401 17.7154C56.6677 18.6086 57.0415 19.6159 57.3584 20.6493C56.466 21.1991 55.463 21.5612 54.6546 22.2522C54.0694 21.2417 53.4064 20.275 52.9445 19.1951Z" fill="#39778D"/>
<path d="M60.2224 27.7199C60.3428 27.9472 60.4631 28.1742 60.5837 28.4012C59.5726 29.2325 58.7649 29.2989 57.7769 28.6315C56.0263 27.4491 55.7918 26.9041 56.3068 25.2171C57.8194 25.7259 59.1509 26.5185 60.2224 27.7199Z" fill="#39778D"/>
<defs>
<linearGradient id="paint0_linear_85_71254" x1="42.9202" y1="44.1372" x2="42.9202" y2="46.9921" gradientUnits="userSpaceOnUse">
<stop stop-color="#F0A9AA"/>
<stop offset="1" stop-color="#8A6162"/>
</linearGradient>
<linearGradient id="paint1_linear_85_71254" x1="72.0882" y1="6.27209" x2="72.0882" y2="9.17765" gradientUnits="userSpaceOnUse">
<stop stop-color="#F0A9AA"/>
<stop offset="1" stop-color="#8A6162"/>
</linearGradient>
<linearGradient id="paint2_linear_85_71254" x1="55.1117" y1="22.4193" x2="55.1117" y2="25.4525" gradientUnits="userSpaceOnUse">
<stop stop-color="#F0A9AA"/>
<stop offset="1" stop-color="#8A6162"/>
</linearGradient>
<linearGradient id="paint3_linear_85_71254" x1="53.1721" y1="80.0692" x2="53.1721" y2="84.5369" gradientUnits="userSpaceOnUse">
<stop stop-color="#F0A9AA"/>
<stop offset="1" stop-color="#8A6162"/>
</linearGradient>
<linearGradient id="paint4_linear_85_71254" x1="61.1596" y1="33.9005" x2="61.1596" y2="38.1935" gradientUnits="userSpaceOnUse">
<stop stop-color="#F0A9AA"/>
<stop offset="1" stop-color="#8A6162"/>
</linearGradient>
<linearGradient id="paint5_linear_85_71254" x1="86.4594" y1="19.9977" x2="86.4594" y2="24.0518" gradientUnits="userSpaceOnUse">
<stop stop-color="#F0A9AA"/>
<stop offset="1" stop-color="#8A6162"/>
</linearGradient>
<linearGradient id="paint6_linear_85_71254" x1="50.0174" y1="68.6037" x2="50.0174" y2="72.7219" gradientUnits="userSpaceOnUse">
<stop stop-color="#F0A9AA"/>
<stop offset="1" stop-color="#8A6162"/>
</linearGradient>
<linearGradient id="paint7_linear_85_71254" x1="84.8182" y1="48.3218" x2="84.8182" y2="52.7135" gradientUnits="userSpaceOnUse">
<stop stop-color="#F0A9AA"/>
<stop offset="1" stop-color="#8A6162"/>
</linearGradient>
<linearGradient id="paint8_linear_85_71254" x1="60.6291" y1="57.9024" x2="60.6291" y2="62.2099" gradientUnits="userSpaceOnUse">
<stop stop-color="#F0A9AA"/>
<stop offset="1" stop-color="#8A6162"/>
</linearGradient>
<linearGradient id="paint9_linear_85_71254" x1="69.6794" y1="53.9779" x2="69.6794" y2="57.1717" gradientUnits="userSpaceOnUse">
<stop stop-color="#F0A9AA"/>
<stop offset="1" stop-color="#8A6162"/>
</linearGradient>
<linearGradient id="paint10_linear_85_71254" x1="82.5112" y1="34.3259" x2="82.5112" y2="37.4587" gradientUnits="userSpaceOnUse">
<stop stop-color="#F0A9AA"/>
<stop offset="1" stop-color="#8A6162"/>
</linearGradient>
<linearGradient id="paint11_linear_85_71254" x1="100.587" y1="65.3821" x2="100.587" y2="69.5374" gradientUnits="userSpaceOnUse">
<stop stop-color="#F0A9AA"/>
<stop offset="1" stop-color="#8A6162"/>
</linearGradient>
<linearGradient id="paint12_linear_85_71254" x1="92.2682" y1="74.9639" x2="92.2682" y2="78.3461" gradientUnits="userSpaceOnUse">
<stop stop-color="#F0A9AA"/>
<stop offset="1" stop-color="#8A6162"/>
</linearGradient>
<linearGradient id="paint13_linear_85_71254" x1="53.0587" y1="48.0772" x2="53.0587" y2="51.43" gradientUnits="userSpaceOnUse">
<stop stop-color="#F0A9AA"/>
<stop offset="1" stop-color="#8A6162"/>
</linearGradient>
<linearGradient id="paint14_linear_85_71254" x1="86.3685" y1="60.8495" x2="86.3685" y2="63.6773" gradientUnits="userSpaceOnUse">
<stop stop-color="#F0A9AA"/>
<stop offset="1" stop-color="#8A6162"/>
</linearGradient>
<linearGradient id="paint15_linear_85_71254" x1="65.1583" y1="81.0211" x2="65.1583" y2="83.8425" gradientUnits="userSpaceOnUse">
<stop stop-color="#F0A9AA"/>
<stop offset="1" stop-color="#8A6162"/>
</linearGradient>
<linearGradient id="paint16_linear_85_71254" x1="72.5121" y1="42.0684" x2="72.5121" y2="44.7853" gradientUnits="userSpaceOnUse">
<stop stop-color="#F0A9AA"/>
<stop offset="1" stop-color="#8A6162"/>
</linearGradient>
<linearGradient id="paint17_linear_85_71254" x1="73.8763" y1="95.1409" x2="73.8763" y2="98.3354" gradientUnits="userSpaceOnUse">
<stop stop-color="#F0A9AA"/>
<stop offset="1" stop-color="#8A6162"/>
</linearGradient>
<linearGradient id="paint18_linear_85_71254" x1="74.6918" y1="69.8167" x2="74.6918" y2="74.1133" gradientUnits="userSpaceOnUse">
<stop stop-color="#F0A9AA"/>
<stop offset="1" stop-color="#8A6162"/>
</linearGradient>
<linearGradient id="paint19_linear_85_71254" x1="102.931" y1="53.9176" x2="102.931" y2="56.9894" gradientUnits="userSpaceOnUse">
<stop stop-color="#F0A9AA"/>
<stop offset="1" stop-color="#8A6162"/>
</linearGradient>
<linearGradient id="paint20_linear_85_71254" x1="90.4651" y1="87.8752" x2="90.4651" y2="91.3422" gradientUnits="userSpaceOnUse">
<stop stop-color="#F0A9AA"/>
<stop offset="1" stop-color="#8A6162"/>
</linearGradient>
<linearGradient id="paint21_linear_85_71254" x1="106.524" y1="41.0343" x2="106.524" y2="45.6482" gradientUnits="userSpaceOnUse">
<stop stop-color="#F0A9AA"/>
<stop offset="1" stop-color="#8A6162"/>
</linearGradient>
</defs>
</svg>
