<svg width="25" height="24" viewBox="0 0 25 24" fill="none" xmlns="http://www.w3.org/2000/svg">
<g id="Group">
<path id="Vector" d="M24.5 6.42737H0.5V23.5663H24.5V6.42737Z" fill="url(#paint0_linear_96_70793)"/>
<path id="Vector_2" d="M22.7568 21.8256L22.7568 8.16833L2.24325 8.16833L2.24325 21.8256L22.7568 21.8256Z" fill="white"/>
<path id="Vector_3" d="M24.5 1.33643H0.5V6.40045H24.5V1.33643Z" fill="url(#paint1_linear_96_70793)"/>
<path id="Vector_4" d="M22.7567 8.16821H2.24316V21.8254H22.7567V8.16821Z" fill="white"/>
<g id="Group_2">
<g id="Group_3">
<g id="Group_4">
<path id="Vector_5" d="M5.65969 11.8012H2.89771C2.77682 11.8012 2.67871 11.7035 2.67871 11.5825C2.67871 11.4616 2.77682 11.3638 2.89771 11.3638H5.44069V8.82447C5.44069 8.70353 5.5388 8.60577 5.65969 8.60577C5.78057 8.60577 5.87868 8.70353 5.87868 8.82447V11.5825C5.87868 11.7032 5.78057 11.8012 5.65969 11.8012Z" fill="#143046"/>
</g>
<g id="Group_5">
<path id="Vector_6" d="M9.07937 11.8013H5.6604C5.53952 11.8013 5.44141 11.7035 5.44141 11.5826V8.82454C5.44141 8.70359 5.53952 8.60583 5.6604 8.60583C5.78129 8.60583 5.8794 8.70359 5.8794 8.82454V11.3639H8.86037V8.82454C8.86037 8.70359 8.95848 8.60583 9.07937 8.60583C9.20025 8.60583 9.29837 8.70359 9.29837 8.82454V11.5826C9.29837 11.7033 9.20025 11.8013 9.07937 11.8013Z" fill="#143046"/>
</g>
<g id="Group_6">
<path id="Vector_7" d="M12.4983 11.8012H9.07935C8.95846 11.8012 8.86035 11.7035 8.86035 11.5825V8.82447C8.86035 8.70353 8.95846 8.60577 9.07935 8.60577C9.20023 8.60577 9.29834 8.70353 9.29834 8.82447V11.3638H12.2793V8.82447C12.2793 8.70353 12.3774 8.60577 12.4983 8.60577C12.6192 8.60577 12.7173 8.70353 12.7173 8.82447V11.5825C12.7173 11.7032 12.6192 11.8012 12.4983 11.8012Z" fill="#143046"/>
</g>
<g id="Group_7">
<path id="Vector_8" d="M15.917 11.8013H12.4983C12.3774 11.8013 12.2793 11.7035 12.2793 11.5826V8.82454C12.2793 8.70359 12.3774 8.60583 12.4983 8.60583C12.6192 8.60583 12.7173 8.70359 12.7173 8.82454V11.3639H15.698V8.82454C15.698 8.70359 15.7962 8.60583 15.917 8.60583C16.0379 8.60583 16.136 8.70359 16.136 8.82454V11.5826C16.136 11.7033 16.0379 11.8013 15.917 11.8013Z" fill="#143046"/>
</g>
<g id="Group_8">
<path id="Vector_9" d="M19.3362 11.8012H15.9172C15.7964 11.8012 15.6982 11.7035 15.6982 11.5825V8.82447C15.6982 8.70353 15.7964 8.60577 15.9172 8.60577C16.0381 8.60577 16.1362 8.70353 16.1362 8.82447V11.3638H19.1172V8.82447C19.1172 8.70353 19.2153 8.60577 19.3362 8.60577C19.4571 8.60577 19.5552 8.70353 19.5552 8.82447V11.5825C19.5552 11.7032 19.4571 11.8012 19.3362 11.8012Z" fill="#143046"/>
</g>
<g id="Group_9">
<path id="Vector_10" d="M22.0982 11.8012H19.3362C19.2153 11.8012 19.1172 11.7035 19.1172 11.5825V8.82447C19.1172 8.70353 19.2153 8.60577 19.3362 8.60577C19.4571 8.60577 19.5552 8.70353 19.5552 8.82447V11.3638H22.0982C22.219 11.3638 22.3172 11.4616 22.3172 11.5825C22.3172 11.7032 22.219 11.8012 22.0982 11.8012Z" fill="#143046"/>
</g>
</g>
<g id="Group_10">
<g id="Group_11">
<path id="Vector_11" d="M5.65969 15.2156H2.89771C2.77682 15.2156 2.67871 15.1178 2.67871 14.9969C2.67871 14.8759 2.77682 14.7782 2.89771 14.7782H5.44069V11.8012H2.89771C2.77682 11.8012 2.67871 11.7035 2.67871 11.5825C2.67871 11.4616 2.77682 11.3638 2.89771 11.3638H5.65969C5.78057 11.3638 5.87868 11.4616 5.87868 11.5825V14.9969C5.87868 15.1178 5.78057 15.2156 5.65969 15.2156Z" fill="#143046"/>
</g>
<g id="Group_12">
<path id="Vector_12" d="M9.07937 15.2156H5.6604C5.53952 15.2156 5.44141 15.1178 5.44141 14.9969V11.5825C5.44141 11.4616 5.53952 11.3638 5.6604 11.3638H9.07937C9.20025 11.3638 9.29837 11.4616 9.29837 11.5825V14.9969C9.29837 15.1178 9.20025 15.2156 9.07937 15.2156ZM5.8794 14.7782H8.86037V11.8012H5.8794V14.7782Z" fill="#143046"/>
</g>
<g id="Group_13">
<path id="Vector_13" d="M12.4983 15.2156H9.07935C8.95846 15.2156 8.86035 15.1178 8.86035 14.9969V11.5825C8.86035 11.4616 8.95846 11.3638 9.07935 11.3638H12.4983C12.6192 11.3638 12.7173 11.4616 12.7173 11.5825V14.9969C12.7173 15.1178 12.6192 15.2156 12.4983 15.2156ZM9.29834 14.7782H12.2793V11.8012H9.29834V14.7782Z" fill="#143046"/>
</g>
<g id="Group_14">
<path id="Vector_14" d="M15.917 15.2156H12.4983C12.3774 15.2156 12.2793 15.1178 12.2793 14.9969V11.5825C12.2793 11.4616 12.3774 11.3638 12.4983 11.3638H15.917C16.0379 11.3638 16.136 11.4616 16.136 11.5825V14.9969C16.136 15.1178 16.0379 15.2156 15.917 15.2156ZM12.7173 14.7782H15.698V11.8012H12.7173V14.7782Z" fill="#143046"/>
</g>
<g id="Group_15">
<path id="Vector_15" d="M19.3362 15.2156H15.9172C15.7964 15.2156 15.6982 15.1178 15.6982 14.9969V11.5825C15.6982 11.4616 15.7964 11.3638 15.9172 11.3638H19.3362C19.4571 11.3638 19.5552 11.4616 19.5552 11.5825V14.9969C19.5552 15.1178 19.4571 15.2156 19.3362 15.2156ZM16.1362 14.7782H19.1172V11.8012H16.1362V14.7782Z" fill="#143046"/>
</g>
<g id="Group_16">
<path id="Vector_16" d="M22.0982 15.2156H19.3362C19.2153 15.2156 19.1172 15.1178 19.1172 14.9969V11.5825C19.1172 11.4616 19.2153 11.3638 19.3362 11.3638H22.0982C22.219 11.3638 22.3172 11.4616 22.3172 11.5825C22.3172 11.7035 22.219 11.8012 22.0982 11.8012H19.5552V14.7782H22.0982C22.219 14.7782 22.3172 14.8759 22.3172 14.9969C22.3172 15.1178 22.219 15.2156 22.0982 15.2156Z" fill="#143046"/>
</g>
</g>
<g id="Group_17">
<g id="Group_18">
<path id="Vector_17" d="M5.65969 18.6297H2.89771C2.77682 18.6297 2.67871 18.5319 2.67871 18.411C2.67871 18.29 2.77682 18.1923 2.89771 18.1923H5.44069V15.2155H2.89771C2.77682 15.2155 2.67871 15.1178 2.67871 14.9968C2.67871 14.8759 2.77682 14.7781 2.89771 14.7781H5.65969C5.78057 14.7781 5.87868 14.8759 5.87868 14.9968V18.411C5.87868 18.5319 5.78057 18.6297 5.65969 18.6297Z" fill="#143046"/>
</g>
<g id="Group_19">
<path id="Vector_18" d="M9.07937 18.6297H5.6604C5.53952 18.6297 5.44141 18.5319 5.44141 18.411V14.9968C5.44141 14.8759 5.53952 14.7781 5.6604 14.7781H9.07937C9.20025 14.7781 9.29837 14.8759 9.29837 14.9968V18.411C9.29837 18.5319 9.20025 18.6297 9.07937 18.6297ZM5.8794 18.1923H8.86037V15.2155H5.8794V18.1923Z" fill="#143046"/>
</g>
<g id="Group_20">
<path id="Vector_19" d="M12.4983 18.6297H9.07935C8.95846 18.6297 8.86035 18.5319 8.86035 18.411V14.9968C8.86035 14.8759 8.95846 14.7781 9.07935 14.7781H12.4983C12.6192 14.7781 12.7173 14.8759 12.7173 14.9968V18.411C12.7173 18.5319 12.6192 18.6297 12.4983 18.6297ZM9.29834 18.1923H12.2793V15.2155H9.29834V18.1923Z" fill="#143046"/>
</g>
<g id="Group_21">
<path id="Vector_20" d="M15.917 18.6297H12.4983C12.3774 18.6297 12.2793 18.5319 12.2793 18.411V14.9968C12.2793 14.8759 12.3774 14.7781 12.4983 14.7781H15.917C16.0379 14.7781 16.136 14.8759 16.136 14.9968V18.411C16.136 18.5319 16.0379 18.6297 15.917 18.6297ZM12.7173 18.1923H15.698V15.2155H12.7173V18.1923Z" fill="#143046"/>
</g>
<g id="Group_22">
<path id="Vector_21" d="M19.3362 18.6297H15.9172C15.7964 18.6297 15.6982 18.5319 15.6982 18.411V14.9968C15.6982 14.8759 15.7964 14.7781 15.9172 14.7781H19.3362C19.4571 14.7781 19.5552 14.8759 19.5552 14.9968V18.411C19.5552 18.5319 19.4571 18.6297 19.3362 18.6297ZM16.1362 18.1923H19.1172V15.2155H16.1362V18.1923Z" fill="#143046"/>
</g>
<g id="Group_23">
<path id="Vector_22" d="M22.0982 18.6297H19.3362C19.2153 18.6297 19.1172 18.5319 19.1172 18.411V14.9968C19.1172 14.8759 19.2153 14.7781 19.3362 14.7781H22.0982C22.219 14.7781 22.3172 14.8759 22.3172 14.9968C22.3172 15.1178 22.219 15.2155 22.0982 15.2155H19.5552V18.1923H22.0982C22.219 18.1923 22.3172 18.29 22.3172 18.411C22.3172 18.5319 22.219 18.6297 22.0982 18.6297Z" fill="#143046"/>
</g>
</g>
<g id="Group_24">
<g id="Group_25">
<path id="Vector_23" d="M5.65969 21.3882C5.5388 21.3882 5.44069 21.2904 5.44069 21.1695V18.6297H2.89771C2.77682 18.6297 2.67871 18.532 2.67871 18.411C2.67871 18.2901 2.77682 18.1923 2.89771 18.1923H5.65969C5.78057 18.1923 5.87868 18.2901 5.87868 18.411V21.1693C5.87868 21.2902 5.78057 21.3882 5.65969 21.3882Z" fill="#143046"/>
</g>
<g id="Group_26">
<path id="Vector_24" d="M9.07937 21.3882C8.95848 21.3882 8.86037 21.2904 8.86037 21.1695V18.6297H5.8794V21.1693C5.8794 21.2902 5.78129 21.388 5.6604 21.388C5.53952 21.388 5.44141 21.2902 5.44141 21.1693V18.411C5.44141 18.2901 5.53952 18.1923 5.6604 18.1923H9.07937C9.20025 18.1923 9.29837 18.2901 9.29837 18.411V21.1693C9.29837 21.2902 9.20025 21.3882 9.07937 21.3882Z" fill="#143046"/>
</g>
<g id="Group_27">
<path id="Vector_25" d="M12.4983 21.3882C12.3774 21.3882 12.2793 21.2904 12.2793 21.1695V18.6297H9.29834V21.1693C9.29834 21.2902 9.20023 21.388 9.07935 21.388C8.95846 21.388 8.86035 21.2902 8.86035 21.1693V18.411C8.86035 18.2901 8.95846 18.1923 9.07935 18.1923H12.4983C12.6192 18.1923 12.7173 18.2901 12.7173 18.411V21.1693C12.7173 21.2902 12.6192 21.3882 12.4983 21.3882Z" fill="#143046"/>
</g>
<g id="Group_28">
<path id="Vector_26" d="M15.917 21.3882C15.7962 21.3882 15.698 21.2904 15.698 21.1695V18.6297H12.7173V21.1693C12.7173 21.2902 12.6192 21.388 12.4983 21.388C12.3774 21.388 12.2793 21.2902 12.2793 21.1693V18.411C12.2793 18.2901 12.3774 18.1923 12.4983 18.1923H15.917C16.0379 18.1923 16.136 18.2901 16.136 18.411V21.1693C16.136 21.2902 16.0379 21.3882 15.917 21.3882Z" fill="#143046"/>
</g>
<g id="Group_29">
<path id="Vector_27" d="M19.3362 21.3882C19.2153 21.3882 19.1172 21.2904 19.1172 21.1695V18.6297H16.1362V21.1693C16.1362 21.2902 16.0381 21.388 15.9172 21.388C15.7964 21.388 15.6982 21.2902 15.6982 21.1693V18.411C15.6982 18.2901 15.7964 18.1923 15.9172 18.1923H19.3362C19.4571 18.1923 19.5552 18.2901 19.5552 18.411V21.1693C19.5552 21.2902 19.4571 21.3882 19.3362 21.3882Z" fill="#143046"/>
</g>
<g id="Group_30">
<path id="Vector_28" d="M19.3362 21.3882C19.2153 21.3882 19.1172 21.2904 19.1172 21.1695V18.411C19.1172 18.2901 19.2153 18.1923 19.3362 18.1923H22.0982C22.219 18.1923 22.3172 18.2901 22.3172 18.411C22.3172 18.532 22.219 18.6297 22.0982 18.6297H19.5552V21.1693C19.5552 21.2902 19.4571 21.3882 19.3362 21.3882Z" fill="#143046"/>
</g>
</g>
</g>
<g id="Group_31">
<path id="Vector_29" d="M2.58423 2.67446C2.46334 2.67446 2.36523 2.5767 2.36523 2.45576V0.217358C2.36523 0.0964166 2.46334 -0.00134277 2.58423 -0.00134277C2.70512 -0.00134277 2.80323 0.0964166 2.80323 0.217358V2.45576C2.80323 2.5767 2.70512 2.67446 2.58423 2.67446Z" fill="#143046"/>
</g>
<g id="Group_32">
<path id="Vector_30" d="M5.83228 2.67446C5.71139 2.67446 5.61328 2.5767 5.61328 2.45576V0.217358C5.61328 0.0964166 5.71139 -0.00134277 5.83228 -0.00134277C5.95316 -0.00134277 6.05127 0.0964166 6.05127 0.217358V2.45576C6.05127 2.5767 5.95316 2.67446 5.83228 2.67446Z" fill="#143046"/>
</g>
<g id="Group_33">
<path id="Vector_31" d="M9.0813 2.67446C8.96041 2.67446 8.8623 2.5767 8.8623 2.45576V0.217358C8.8623 0.0964166 8.96041 -0.00134277 9.0813 -0.00134277C9.20219 -0.00134277 9.3003 0.0964166 9.3003 0.217358V2.45576C9.3003 2.5767 9.20219 2.67446 9.0813 2.67446Z" fill="#143046"/>
</g>
<g id="Group_34">
<path id="Vector_32" d="M15.9182 2.67446C15.7973 2.67446 15.6992 2.5767 15.6992 2.45576V0.217358C15.6992 0.0964166 15.7973 -0.00134277 15.9182 -0.00134277C16.0391 -0.00134277 16.1372 0.0964166 16.1372 0.217358V2.45576C16.1372 2.5767 16.0391 2.67446 15.9182 2.67446Z" fill="#143046"/>
</g>
<g id="Group_35">
<path id="Vector_33" d="M19.1672 2.67446C19.0464 2.67446 18.9482 2.5767 18.9482 2.45576V0.217358C18.9482 0.0964166 19.0464 -0.00134277 19.1672 -0.00134277C19.2881 -0.00134277 19.3862 0.0964166 19.3862 0.217358V2.45576C19.3862 2.5767 19.2883 2.67446 19.1672 2.67446Z" fill="#143046"/>
</g>
<g id="Group_36">
<path id="Vector_34" d="M22.4153 2.67446C22.2944 2.67446 22.1963 2.5767 22.1963 2.45576V0.217358C22.1963 0.0964166 22.2944 -0.00134277 22.4153 -0.00134277C22.5362 -0.00134277 22.6343 0.0964166 22.6343 0.217358V2.45576C22.6343 2.5767 22.5364 2.67446 22.4153 2.67446Z" fill="#143046"/>
</g>
<path id="Vector_35" d="M9.08126 3.86835H2.58496V4.89493H9.08126V3.86835Z" fill="#B7D9E5"/>
</g>
<defs>
<linearGradient id="paint0_linear_96_70793" x1="12.5" y1="6.42737" x2="12.5" y2="23.5663" gradientUnits="userSpaceOnUse">
<stop stop-color="#95BCCC"/>
<stop offset="1" stop-color="#F0A9AA"/>
</linearGradient>
<linearGradient id="paint1_linear_96_70793" x1="24.5" y1="3.86844" x2="0.5" y2="3.86844" gradientUnits="userSpaceOnUse">
<stop stop-color="#F0A9AA"/>
<stop offset="1" stop-color="#95BCCC"/>
</linearGradient>
</defs>
</svg>
